<svg data-v-423bf9ae="" xmlns="http://www.w3.org/2000/svg" viewBox="0 0 400 90" width="170px" class="iconLeft">
  <!---->
  <!---->
  <!---->
  <g data-v-423bf9ae="" id="bc36981c-e787-422c-a3a4-d8e47e61ebc4" fill="#ffffff" transform="matrix(9.66183568944126,0,0,9.66183568944126,107.4802214229478,-8.864735144602989)">
    <path d="M1.28 8.68L1.28 8.68Q1.66 8.68 1.94 8.58Q2.22 8.48 2.38 8.32Q2.55 8.16 2.66 7.91Q2.76 7.67 2.79 7.41Q2.83 7.16 2.83 6.83L2.83 6.83L2.83 3.12L1.09 3.12L1.31 3.53L1.31 6.92Q1.31 7.28 1.16 7.42Q1.02 7.57 0.77 7.57L0.77 7.57Q0.62 7.57 0.52 7.55Q0.43 7.52 0.28 7.43L0.28 7.43L0.29 8.40Q0.39 8.49 0.66 8.58Q0.94 8.68 1.28 8.68ZM5.73 7.97L5.73 7.97L5.88 8.59L7.17 8.59L7.17 4.62L5.39 4.62L5.39 5.16L5.64 5.32L5.64 7.52Q5.63 7.53 5.60 7.55Q5.58 7.57 5.56 7.58Q5.55 7.59 5.53 7.60Q5.51 7.62 5.49 7.63Q5.48 7.64 5.46 7.65Q5.43 7.66 5.42 7.67Q5.40 7.67 5.38 7.68Q5.35 7.69 5.33 7.69Q5.31 7.69 5.28 7.69L5.28 7.69Q5.08 7.69 5.01 7.59Q4.93 7.49 4.94 7.28L4.94 7.28L4.94 4.62L3.24 4.62L3.24 5.16L3.41 5.32L3.41 6.99Q3.41 7.90 3.69 8.29Q3.97 8.68 4.63 8.68L4.63 8.68Q4.84 8.68 5.04 8.59Q5.25 8.50 5.39 8.37Q5.53 8.25 5.62 8.14Q5.70 8.03 5.73 7.97ZM7.77 3.31L7.77 8.59L9.29 8.59L9.29 2.47L8.98 2.47L7.49 2.71L7.49 3.14L7.77 3.31ZM9.80 8.59L9.80 8.59L13.12 8.59L13.12 7.18L12.57 7.18Q12.49 7.49 12.44 7.56L12.44 7.56Q12.32 7.76 11.94 7.81L11.94 7.81Q11.68 7.85 11.23 7.85L11.23 7.85L11.81 7.42L13.19 5.37Q13.12 5.19 13.06 4.98Q13.00 4.78 12.98 4.62L12.98 4.62L9.86 4.62L9.86 5.99L10.50 5.99Q10.51 5.96 10.54 5.87Q10.57 5.78 10.59 5.74Q10.61 5.70 10.66 5.62Q10.71 5.54 10.76 5.50Q10.81 5.46 10.91 5.41Q11.01 5.35 11.13 5.32Q11.24 5.29 11.41 5.27Q11.58 5.25 11.79 5.25L11.79 5.25L11.27 5.64L9.61 7.77Q9.66 7.92 9.73 8.17Q9.79 8.43 9.80 8.59ZM15.45 3.12L15.45 8.59L18.39 8.59L18.39 7.34L17.00 7.34L17.00 3.12L15.45 3.12ZM20.84 8.22L20.89 8.17L21.04 8.59L22.32 8.59L22.19 8.22L22.19 6.32Q22.19 5.81 22.11 5.48Q22.03 5.14 21.84 4.93Q21.65 4.71 21.35 4.62Q21.04 4.53 20.58 4.53L20.58 4.53Q20.05 4.53 19.54 4.68Q19.03 4.84 18.71 5.04L18.71 5.04L19.01 5.68Q19.19 5.59 19.50 5.52Q19.81 5.45 20.10 5.45L20.10 5.45Q20.44 5.45 20.59 5.57Q20.74 5.68 20.74 5.97L20.74 5.97L20.74 6.05Q20.58 6.05 20.41 6.07Q20.24 6.08 20.02 6.12Q19.80 6.16 19.60 6.23Q19.40 6.29 19.21 6.40Q19.01 6.51 18.87 6.65Q18.73 6.79 18.64 6.99Q18.55 7.20 18.55 7.44L18.55 7.44Q18.55 8.68 19.81 8.68L19.81 8.68Q20.00 8.68 20.18 8.63Q20.36 8.58 20.48 8.50Q20.60 8.43 20.70 8.35Q20.79 8.28 20.84 8.22L20.84 8.22ZM20.52 7.86L20.52 7.86Q20.12 7.86 20.12 7.28L20.12 7.28Q20.12 6.95 20.29 6.80Q20.46 6.64 20.74 6.64L20.74 6.64L20.74 7.76Q20.74 7.76 20.72 7.79Q20.69 7.81 20.63 7.84Q20.58 7.86 20.52 7.86ZM25.17 8.59L25.17 8.59Q25.55 8.59 25.86 8.43Q26.16 8.26 26.35 7.98Q26.54 7.70 26.64 7.32Q26.74 6.95 26.74 6.51L26.74 6.51Q26.74 5.58 26.37 5.05Q26.01 4.53 25.24 4.53L25.24 4.53Q25.06 4.53 24.90 4.57Q24.74 4.61 24.61 4.68Q24.49 4.75 24.40 4.83Q24.31 4.90 24.23 4.98L24.23 4.98L24.23 2.47L23.93 2.47L22.43 2.71L22.43 3.14L22.71 3.31L22.71 8.59L24.23 8.59L24.23 8.37Q24.64 8.59 25.17 8.59ZM24.48 7.94L24.48 7.94Q24.43 7.94 24.36 7.93Q24.30 7.92 24.23 7.91L24.23 7.91L24.23 5.48Q24.41 5.35 24.58 5.35L24.58 5.35Q24.81 5.35 24.96 5.57Q25.11 5.79 25.11 6.19L25.11 6.19L25.11 6.98Q25.11 7.94 24.48 7.94ZM28.44 8.68L28.44 8.68Q30.25 8.68 30.25 7.25L30.25 7.25Q30.25 6.75 30.00 6.42Q29.75 6.09 29.21 5.91L29.21 5.91Q29.11 5.88 28.98 5.84Q28.84 5.81 28.77 5.79Q28.69 5.77 28.61 5.73Q28.54 5.70 28.50 5.65Q28.47 5.60 28.47 5.53L28.47 5.53Q28.47 5.26 28.91 5.26L28.91 5.26Q29.46 5.26 29.76 5.57L29.76 5.57L29.97 4.90Q29.97 4.90 29.89 4.82L29.89 4.82Q29.51 4.53 28.71 4.53L28.71 4.53Q28.24 4.53 27.86 4.66Q27.49 4.80 27.24 5.10Q27.00 5.40 27.00 5.82L27.00 5.82Q27.00 6.85 28.09 7.17L28.09 7.17Q28.51 7.30 28.70 7.39Q28.88 7.49 28.88 7.61L28.88 7.61Q28.88 7.74 28.78 7.81Q28.67 7.88 28.39 7.88L28.39 7.88Q28.00 7.88 27.63 7.77Q27.26 7.65 27.10 7.50L27.10 7.50L26.98 8.25Q27.11 8.39 27.56 8.54Q28.00 8.68 28.44 8.68Z"></path>
  </g>
  <defs data-v-423bf9ae="">
    <linearGradient data-v-423bf9ae="" gradientTransform="rotate(25)" id="0efc9aa3-447d-4d19-9c3a-88272f61a337" x1="0%" y1="0%" x2="100%" y2="0%">
      <stop data-v-423bf9ae="" offset="0%" style="stop-color: rgb(146, 13, 233); stop-opacity: 1;"></stop>
      <stop data-v-423bf9ae="" offset="100%" style="stop-color: rgb(21, 54, 241); stop-opacity: 1;"></stop>
    </linearGradient>
  </defs>
  <g data-v-423bf9ae="" id="b980668a-1a30-40c7-a8bf-13370f86bab9" transform="matrix(3.477404716473048,0,0,3.477404716473048,-127.69228281453204,-128.88037318045386)" stroke="none" fill="url(#0efc9aa3-447d-4d19-9c3a-88272f61a337)">
    <g data-name="Black hole 2">
      <path d="M42.13 43.46l14.41 14.41a10.22 10.22 0 01-14.41-14.41zM57.65 56.76L43.24 42.35a10.22 10.22 0 0114.41 14.41z"></path>
      <path d="M59.12 40.88a12.92 12.92 0 00-15.71-2 .8.8 0 00-.15 1.24.79.79 0 001 .11 11.33 11.33 0 0115.48 15.55.79.79 0 00.11 1 .8.8 0 001.24-.15 12.92 12.92 0 00-1.97-15.75zM56.46 60a.8.8 0 00-1-.13 11.32 11.32 0 01-15.4-15.4.8.8 0 00-.13-1 .79.79 0 00-1.24.17 12.9 12.9 0 0017.6 17.62.79.79 0 00.17-1.26zM41 41.72a.49.49 0 01-.35-.15L39 39.9a.5.5 0 01.71-.71l1.67 1.67a.51.51 0 010 .71.51.51 0 01-.38.15zM37.55 38.27a.48.48 0 01-.36-.15.48.48 0 010-.7.42.42 0 01.16-.11.51.51 0 01.55.11.5.5 0 01.14.35.63.63 0 01-.04.23.46.46 0 01-.11.16.47.47 0 01-.34.11zM60.34 61.06a.46.46 0 01-.35-.14l-1.67-1.67a.5.5 0 010-.71.51.51 0 01.71 0l1.66 1.67a.5.5 0 010 .71.46.46 0 01-.35.14zM62.12 62.84a.55.55 0 01-.35-.14.51.51 0 01-.15-.36.47.47 0 01.15-.35.46.46 0 01.16-.11.5.5 0 01.38 0 .46.46 0 01.16.11.47.47 0 01.15.35.51.51 0 01-.15.36.55.55 0 01-.35.14z"></path>
    </g>
  </g>
  <!---->
</svg>
