<?xml version="1.0" encoding="UTF-8" standalone="no"?>
<!-- Created with Inkscape (http://www.inkscape.org/) -->

<svg
   version="1.1"
   id="svg1"
   width="2899"
   height="753"
   viewBox="0 0 2899 753"
   xmlns="http://www.w3.org/2000/svg"
   xmlns:svg="http://www.w3.org/2000/svg">
  <defs
     id="defs1" />
  <g
     id="g1">
    <g
       id="g2">
      <path
         style="fill:#8935c7"
         d="m 34,689.57037 c 0,-0.275 0.9,-0.98167 2,-1.57037 1.1,-0.5887 2,-0.84537 2,-0.57037 0,0.275 -0.9,0.98167 -2,1.57037 -1.1,0.5887 -2,0.84537 -2,0.57037 z m 503.28017,-24.30664 c 2.6291,-0.20668 6.6791,-0.20418 9,0.006 2.32091,0.20972 0.16983,0.37882 -4.78017,0.37577 -4.95,-0.003 -6.84892,-0.17464 -4.21983,-0.38131 z m -18.51851,-0.97099 c 1.24391,-0.23919 3.04391,-0.23011 4,0.0202 0.95609,0.25029 -0.0617,0.446 -2.26166,0.4349 -2.2,-0.0111 -2.98225,-0.21589 -1.73834,-0.45508 z m 39.98834,0.002 c 1.2375,-0.23836 3.2625,-0.23836 4.5,0 1.2375,0.23835 0.225,0.43337 -2.25,0.43337 -2.475,0 -3.4875,-0.19502 -2.25,-0.43337 z m -49,-0.95655 c 0.6875,-0.27741 1.8125,-0.27741 2.5,0 0.6875,0.27741 0.125,0.50439 -1.25,0.50439 -1.375,0 -1.9375,-0.22698 -1.25,-0.50439 z m 59.5,-0.0271 c 0.9625,-0.25152 2.5375,-0.25152 3.5,0 0.9625,0.25153 0.175,0.45733 -1.75,0.45733 -1.925,0 -2.7125,-0.2058 -1.75,-0.45733 z m -66.5,-0.97295 c 0.6875,-0.27741 1.8125,-0.27741 2.5,0 0.6875,0.27741 0.125,0.50439 -1.25,0.50439 -1.375,0 -1.9375,-0.22698 -1.25,-0.50439 z m 74.51903,-0.0307 c 0.97297,-0.25354 2.32297,-0.23687 3,0.0371 0.67703,0.27393 -0.11903,0.48137 -1.76903,0.46099 -1.65,-0.0204 -2.20394,-0.2445 -1.23097,-0.49804 z m -80.45653,-0.99012 c 0.72187,-0.28887 1.58438,-0.25335 1.91667,0.0789 0.33229,0.33229 -0.25834,0.56864 -1.3125,0.52522 -1.16495,-0.048 -1.4019,-0.28494 -0.60417,-0.60416 z m 86.45653,-0.01 c 0.97297,-0.25354 2.32297,-0.23687 3,0.0371 0.67703,0.27393 -0.11903,0.48137 -1.76903,0.46099 -1.65,-0.0204 -2.20394,-0.2445 -1.23097,-0.49804 z M 490.8125,660.3172 c 0.72187,-0.28887 1.58438,-0.25335 1.91667,0.0789 0.33229,0.33229 -0.25834,0.56864 -1.3125,0.52522 -1.16495,-0.048 -1.4019,-0.28494 -0.60417,-0.60416 z m 99,0 c 0.72187,-0.28887 1.58438,-0.25335 1.91667,0.0789 0.33229,0.33229 -0.25834,0.56864 -1.3125,0.52522 -1.16495,-0.048 -1.4019,-0.28494 -0.60417,-0.60416 z m 5,-1 c 0.72187,-0.28887 1.58438,-0.25335 1.91667,0.0789 0.33229,0.33229 -0.25834,0.56864 -1.3125,0.52522 -1.16495,-0.048 -1.4019,-0.28494 -0.60417,-0.60416 z m -113,-1 c 0.72187,-0.28887 1.58438,-0.25335 1.91667,0.0789 0.33229,0.33229 -0.25834,0.56864 -1.3125,0.52522 -1.16495,-0.048 -1.4019,-0.28494 -0.60417,-0.60416 z m 117,0 c 0.72187,-0.28887 1.58438,-0.25335 1.91667,0.0789 0.33229,0.33229 -0.25834,0.56864 -1.3125,0.52522 -1.16495,-0.048 -1.4019,-0.28494 -0.60417,-0.60416 z m -121,-1 c 0.72187,-0.28887 1.58438,-0.25335 1.91667,0.0789 0.33229,0.33229 -0.25834,0.56864 -1.3125,0.52522 -1.16495,-0.048 -1.4019,-0.28494 -0.60417,-0.60416 z m 125,0 c 0.72187,-0.28887 1.58438,-0.25335 1.91667,0.0789 0.33229,0.33229 -0.25834,0.56864 -1.3125,0.52522 -1.16495,-0.048 -1.4019,-0.28494 -0.60417,-0.60416 z m -129,-1 c 0.72187,-0.28887 1.58438,-0.25335 1.91667,0.0789 0.33229,0.33229 -0.25834,0.56864 -1.3125,0.52522 -1.16495,-0.048 -1.4019,-0.28494 -0.60417,-0.60416 z m 133,0 c 0.72187,-0.28887 1.58438,-0.25335 1.91667,0.0789 0.33229,0.33229 -0.25834,0.56864 -1.3125,0.52522 -1.16495,-0.048 -1.4019,-0.28494 -0.60417,-0.60416 z m 4,-1 c 0.72187,-0.28887 1.58438,-0.25335 1.91667,0.0789 0.33229,0.33229 -0.25834,0.56864 -1.3125,0.52522 -1.16495,-0.048 -1.4019,-0.28494 -0.60417,-0.60416 z m 5.6875,-1.853 c 1.65,-0.75553 3.675,-1.35974 4.5,-1.34271 0.825,0.017 -0.075,0.63751 -2,1.37882 -4.5657,1.75824 -6.36206,1.73229 -2.5,-0.0361 z m 10.5,-3.29518 c 0.825,-0.50973 2.625,-1.2277 4,-1.5955 1.73748,-0.46475 2.04249,-0.38603 1,0.25808 -0.825,0.50973 -2.625,1.2277 -4,1.5955 -1.73748,0.46475 -2.04249,0.38603 -1,-0.25808 z M 639,645.5 c 1.375,-0.78602 2.95,-1.42913 3.5,-1.42913 0.55,0 -0.125,0.64311 -1.5,1.42913 -1.375,0.78602 -2.95,1.42913 -3.5,1.42913 -0.55,0 0.125,-0.64311 1.5,-1.42913 z m 6,-2.5 c 0.825,-0.53316 1.95,-0.96937 2.5,-0.96937 0.55,0 0.325,0.43621 -0.5,0.96937 -0.825,0.53316 -1.95,0.96937 -2.5,0.96937 -0.55,0 -0.325,-0.43621 0.5,-0.96937 z m 11,-5 c 1.925,-1.05389 3.95,-1.91617 4.5,-1.91617 0.55,0 -0.575,0.86228 -2.5,1.91617 -1.925,1.05389 -3.95,1.91617 -4.5,1.91617 -0.55,0 0.575,-0.86228 2.5,-1.91617 z m -547,0.62244 c 0,-0.20765 0.7875,-0.99515 1.75,-1.75 1.58606,-1.24387 1.62143,-1.2085 0.37756,0.37756 C 109.82119,638.91575 109,639.44548 109,638.62244 Z m 312.50708,-1.61099 c -0.35034,-0.56686 0.0511,-0.7345 0.94098,-0.39301 1.73242,0.66479 2.04939,1.38156 0.61096,1.38156 -0.51754,0 -1.21592,-0.44485 -1.55194,-0.98855 z M 113,635.62244 c 0,-0.20765 0.7875,-0.99515 1.75,-1.75 1.58606,-1.24387 1.62143,-1.2085 0.37756,0.37756 C 113.82119,635.91575 113,636.44548 113,635.62244 Z m 550.5,-1.03993 c 1.1,-0.83286 2.5625,-1.99739 3.25,-2.58783 0.80532,-0.69163 1.25,-0.7129 1.25,-0.0598 0,0.55756 -1.4625,1.72209 -3.25,2.58784 -2.73301,1.32369 -2.93185,1.3332 -1.25,0.0598 z m 5.5,-2.92841 c 0,-0.72412 11.15116,-6.83627 11.61891,-6.36852 0.22922,0.22921 -2.29127,1.86012 -5.60107,3.62423 C 671.70803,630.67392 669,631.90885 669,631.6541 Z m -548,-2.03166 c 0,-0.20765 0.7875,-0.99515 1.75,-1.75 1.58606,-1.24387 1.62143,-1.2085 0.37756,0.37756 C 121.82119,629.91575 121,630.44548 121,629.62244 Z m 284.44113,-1.17761 c -1.86402,-1.49339 -1.85176,-1.51185 0.30887,-0.46481 1.2375,0.59969 2.25,1.29951 2.25,1.55516 0,0.76522 -0.51861,0.54424 -2.55887,-1.09035 z M 127,624.62244 c 0,-0.20765 0.7875,-0.99515 1.75,-1.75 1.58606,-1.24387 1.62143,-1.2085 0.37756,0.37756 C 127.82119,624.91575 127,625.44548 127,624.62244 Z m 558,-1.87391 c 0,-0.20323 4.5,-3.4428 10,-7.19903 5.5,-3.75624 10,-7.29152 10,-7.85618 0,-0.56466 0.2867,-0.73995 0.63712,-0.38953 0.35042,0.35042 2.00667,-0.33808 3.68057,-1.53 1.67389,-1.19192 2.73315,-1.66507 2.35391,-1.05145 C 710.72818,606.24884 685,623.6374 685,622.74853 Z m -553,-2.12609 c 0,-0.20765 0.7875,-0.99515 1.75,-1.75 1.58606,-1.24387 1.62143,-1.2085 0.37756,0.37756 C 132.82119,620.91575 132,621.44548 132,620.62244 Z m 6,-5 c 0,-0.20765 0.7875,-0.99515 1.75,-1.75 1.58606,-1.24387 1.62143,-1.2085 0.37756,0.37756 C 138.82119,615.91575 138,616.44548 138,615.62244 Z M 375.87244,609.25 c -1.24387,-1.58606 -1.2085,-1.62143 0.37756,-0.37756 1.66575,1.30637 2.19548,2.12756 1.37244,2.12756 -0.20765,0 -0.99515,-0.7875 -1.75,-1.75 z M 147.5,607 c 0.99549,-1.1 2.03498,-2 2.30998,-2 0.275,0 -0.31449,0.9 -1.30998,2 -0.99549,1.1 -2.03498,2 -2.30998,2 -0.275,0 0.31449,-0.9 1.30998,-2 z m 219.37244,-4.75 c -1.24387,-1.58606 -1.2085,-1.62143 0.37756,-0.37756 1.66575,1.30637 2.19548,2.12756 1.37244,2.12756 -0.20765,0 -0.99515,-0.7875 -1.75,-1.75 z M 716.5,600.49848 c 2.2,-2.0258 5.35,-4.57889 7,-5.67352 l 3,-1.99025 -3,2.63325 c -1.65,1.44829 -4.8,4.00138 -7,5.67353 l -4,3.04028 z M 361.40499,597.75 359.5,595.5 l 2.25,1.90499 c 2.11444,1.79022 2.70524,2.59501 1.90499,2.59501 -0.18976,0 -1.20226,-1.0125 -2.25,-2.25 z m -11.93629,-11 -5.9687,-6.25 6.25,5.9687 c 5.80572,5.54441 6.7076,6.5313 5.9687,6.5313 -0.15472,0 -2.96722,-2.8125 -6.25,-6.25 z M 727,591.80591 c 0.275,-0.25574 2.75,-2.43843 5.5,-4.85042 4.75224,-4.16812 4.82657,-4.19728 1.5,-0.58838 -1.925,2.08837 -4.4,4.27106 -5.5,4.85042 -1.1,0.57936 -1.775,0.84413 -1.5,0.58838 z m -558,-6.11882 c 0,-0.1721 1.4625,-1.6346 3.25,-3.25 l 3.25,-2.93709 -2.93709,3.25 C 169.82513,585.77946 169,586.45965 169,585.68709 Z m 361.75,-3.39282 c 1.2375,-0.23836 3.2625,-0.23836 4.5,0 1.2375,0.23835 0.225,0.43337 -2.25,0.43337 -2.475,0 -3.4875,-0.19502 -2.25,-0.43337 z m 18,-0.0177 c 1.7875,-0.22182 4.7125,-0.22182 6.5,0 1.7875,0.22183 0.325,0.40333 -3.25,0.40333 -3.575,0 -5.0375,-0.1815 -3.25,-0.40333 z m -29,-0.93888 c 0.6875,-0.27741 1.8125,-0.27741 2.5,0 0.6875,0.27741 0.125,0.50439 -1.25,0.50439 -1.375,0 -1.9375,-0.22698 -1.25,-0.50439 z m 43.51903,-0.0307 c 0.97297,-0.25354 2.32297,-0.23687 3,0.0371 0.67703,0.27393 -0.11903,0.48137 -1.76903,0.46099 -1.65,-0.0204 -2.20394,-0.2445 -1.23097,-0.49804 z m 175.38589,-0.85014 c 0.32569,-0.84872 0.82122,-1.31406 1.10119,-1.03409 0.27997,0.27997 2.69715,-1.72563 5.37152,-4.45687 C 747.802,572.23466 750.31575,570 750.71375,570 c 0.39801,0 -1.94818,2.7 -5.21375,6 -5.96813,6.03106 -7.94244,7.31654 -6.84508,4.45687 z M 512.8125,580.31689 c 0.72187,-0.28887 1.58438,-0.25335 1.91667,0.0789 0.33229,0.33229 -0.25834,0.56864 -1.3125,0.52522 -1.16495,-0.048 -1.4019,-0.28494 -0.60417,-0.60416 z m 57,0 c 0.72187,-0.28887 1.58438,-0.25335 1.91667,0.0789 0.33229,0.33229 -0.25834,0.56864 -1.3125,0.52522 -1.16495,-0.048 -1.4019,-0.28494 -0.60417,-0.60416 z M 177.5,576 c 0.99549,-1.1 2.03498,-2 2.30998,-2 0.275,0 -0.31449,0.9 -1.30998,2 -0.99549,1.1 -2.03498,2 -2.30998,2 -0.275,0 0.31449,-0.9 1.30998,-2 z m 161.37244,-0.75 c -1.24387,-1.58606 -1.2085,-1.62143 0.37756,-0.37756 1.66575,1.30637 2.19548,2.12756 1.37244,2.12756 -0.20765,0 -0.99515,-0.7875 -1.75,-1.75 z m 259.94006,-1.93311 c 0.72187,-0.28887 1.58438,-0.25335 1.91667,0.0789 0.33229,0.33229 -0.25834,0.56864 -1.3125,0.52522 -1.16495,-0.048 -1.4019,-0.28494 -0.60417,-0.60416 z m 443.971,-0.0553 c 2.906,-0.20265 7.406,-0.20052 10,0.005 2.5941,0.20525 0.2165,0.37104 -5.2835,0.36844 -5.5,-0.003 -7.6224,-0.17053 -4.7165,-0.37317 z m 257.9665,0.015 c 1.7875,-0.22182 4.7125,-0.22182 6.5,0 1.7875,0.22183 0.325,0.40333 -3.25,0.40333 -3.575,0 -5.0375,-0.1815 -3.25,-0.40333 z m 915.0179,-0.001 c 1.7974,-0.22256 4.4974,-0.21797 6,0.0102 1.5027,0.22818 0.032,0.41027 -3.2679,0.40466 -3.3,-0.006 -4.5294,-0.1923 -2.7321,-0.41486 z m 305.4821,-0.0103 c 2.6125,-0.206 6.8875,-0.206 9.5,0 2.6125,0.206 0.475,0.37454 -4.75,0.37454 -5.225,0 -7.3625,-0.16854 -4.75,-0.37454 z m 245.5,-0.002 c 2.8875,-0.202 7.6125,-0.202 10.5,0 2.8875,0.202 0.525,0.36728 -5.25,0.36728 -5.775,0 -8.1375,-0.16528 -5.25,-0.36728 z M 603,572 c 0.825,-0.53316 1.95,-0.96937 2.5,-0.96937 0.55,0 0.325,0.43621 -0.5,0.96937 -0.825,0.53316 -1.95,0.96937 -2.5,0.96937 -0.55,0 -0.325,-0.43621 0.5,-0.96937 z m 2188.8125,0.31689 c 0.7219,-0.28887 1.5844,-0.25335 1.9167,0.0789 0.3323,0.33229 -0.2584,0.56864 -1.3125,0.52522 -1.165,-0.048 -1.4019,-0.28494 -0.6042,-0.60416 z M 757.45886,561.75 c 3.78315,-4.2625 7.07208,-7.75 7.30874,-7.75 0.64742,0 -9.20018,11.20429 -11.86534,13.5 -1.27702,1.1 0.77345,-1.4875 4.5566,-5.75 z m -291.95178,4.26145 c -0.35034,-0.56686 0.0511,-0.7345 0.94098,-0.39301 1.73242,0.66479 2.04939,1.38156 0.61096,1.38156 -0.51754,0 -1.21592,-0.44485 -1.55194,-0.98855 z M 1475.4857,432.5 c 0,-74.25 0.1189,-104.77259 0.2642,-67.82797 0.1452,36.94462 0.1453,97.69462 0,135 -0.1453,37.30538 -0.2641,7.07797 -0.2642,-67.17203 z m 30.0106,-66 v -201 l 36.5,-0.0185 36.5,-0.0185 -36.2476,0.2808 -36.2475,0.2808 -0.2561,200.73768 -0.2562,200.73768 z m -471.6838,198.81689 c 0.7219,-0.28887 1.5844,-0.25335 1.9167,0.0789 0.3323,0.33229 -0.2584,0.56864 -1.3125,0.52522 -1.165,-0.048 -1.4019,-0.28494 -0.6042,-0.60416 z m 1500,0 c 0.7219,-0.28887 1.5844,-0.25335 1.9167,0.0789 0.3323,0.33229 -0.2584,0.56864 -1.3125,0.52522 -1.165,-0.048 -1.4019,-0.28494 -0.6042,-0.60416 z M 621,564.60699 c 0,-0.21616 0.69837,-0.661 1.55194,-0.98855 0.88992,-0.34149 1.29132,-0.17385 0.94098,0.39301 C 622.90566,564.96166 621,565.4169 621,564.60699 Z m 4.08333,-1.97154 c 0.22917,-0.2005 1.54167,-0.90032 2.91667,-1.55516 2.35727,-1.12265 2.38918,-1.10183 0.55887,0.36454 -1.593,1.27626 -4.84786,2.39128 -3.47554,1.19062 z M 2360.8724,560.25 c -1.2438,-1.58606 -1.2085,-1.62143 0.3776,-0.37756 0.9625,0.75485 1.75,1.54235 1.75,1.75 0,0.82304 -0.8212,0.29331 -2.1276,-1.37244 z M 631,559.60699 c 0,-0.21616 0.69837,-0.661 1.55194,-0.98855 0.88992,-0.34149 1.29132,-0.17385 0.94098,0.39301 C 632.90566,559.96166 631,560.4169 631,559.60699 Z M 1452.8724,555.25 c -1.2438,-1.58606 -1.2085,-1.62143 0.3776,-0.37756 0.9625,0.75485 1.75,1.54235 1.75,1.75 0,0.82304 -0.8212,0.29331 -2.1276,-1.37244 z M 353,555.63619 c 0,-0.275 1.35,-1.46129 3,-2.63619 1.65,-1.1749 3,-1.91119 3,-1.63619 0,0.275 -1.35,1.46129 -3,2.63619 -1.65,1.1749 -3,1.91119 -3,1.63619 z m 285,-0.0292 c 0,-0.21616 0.69837,-0.661 1.55194,-0.98855 0.88992,-0.34149 1.29132,-0.17385 0.94098,0.39301 C 639.90566,555.96166 638,556.4169 638,555.60699 Z m 1923,-0.98455 c 0,-0.20765 0.7875,-0.99515 1.75,-1.75 1.5861,-1.24387 1.6214,-1.2085 0.3776,0.37756 -1.3064,1.66575 -2.1276,2.19548 -2.1276,1.37244 z M 768,549 c 1.74243,-2.2 3.39306,-4 3.66806,-4 0.275,0 -0.92563,1.8 -2.66806,4 -1.74243,2.2 -3.39306,4 -3.66806,4 -0.275,0 0.92563,-1.8 2.66806,-4 z m 1392.8724,1.25 c -1.2438,-1.58606 -1.2085,-1.62143 0.3776,-0.37756 1.6657,1.30637 2.1955,2.12756 1.3724,2.12756 -0.2076,0 -0.9951,-0.7875 -1.75,-1.75 z m -717,-5 c -1.2438,-1.58606 -1.2085,-1.62143 0.3776,-0.37756 0.9625,0.75485 1.75,1.54235 1.75,1.75 0,0.82304 -0.8212,0.29331 -2.1276,-1.37244 z m 902,-2 c -1.2438,-1.58606 -1.2085,-1.62143 0.3776,-0.37756 0.9625,0.75485 1.75,1.54235 1.75,1.75 0,0.82304 -0.8212,0.29331 -2.1276,-1.37244 z M 660,541.68678 c 0,-0.24717 1.65202,-1.70946 3.67115,-3.24952 2.01913,-1.54007 3.35552,-2.28943 2.96976,-1.66525 C 665.84969,538.05223 660,542.38144 660,541.68678 Z M 778.63875,534 c 2.56007,-3.85 4.84022,-7 5.06698,-7 0.53107,0 -0.2119,1.24655 -4.91714,8.25 -2.12471,3.1625 -4.07493,5.75 -4.33382,5.75 -0.25889,0 1.6239,-3.15 4.18398,-7 z M 413.4687,530.75 407.5,524.5 l 6.25,5.9687 c 5.80572,5.54441 6.7076,6.5313 5.9687,6.5313 -0.15472,0 -2.96722,-2.8125 -6.25,-6.25 z M 670.5,533 c 0.99549,-1.1 2.03498,-2 2.30998,-2 0.275,0 -0.31449,0.9 -1.30998,2 -0.99549,1.1 -2.03498,2 -2.30998,2 -0.275,0 0.31449,-0.9 1.30998,-2 z m 1965,-2 c 2.1482,-2.2 4.1309,-4 4.4059,-4 0.275,0 -1.2577,1.8 -3.4059,4 -2.1482,2.2 -4.1309,4 -4.4059,4 -0.275,0 1.2577,-1.8 3.4059,-4 z M 390,530.59608 c 0,-0.275 2.025,-1.89324 4.5,-3.59608 2.475,-1.70284 4.5,-2.87108 4.5,-2.59608 0,0.275 -2.025,1.89324 -4.5,3.59608 -2.475,1.70284 -4.5,2.87108 -4.5,2.59608 z M 685,519.5 c 4.65071,-4.675 8.68084,-8.5 8.95584,-8.5 0.275,0 -3.30513,3.825 -7.95584,8.5 -4.65071,4.675 -8.68084,8.5 -8.95584,8.5 -0.275,0 3.30513,-3.825 7.95584,-8.5 z m 741.8724,6.75 c -1.2438,-1.58606 -1.2085,-1.62143 0.3776,-0.37756 0.9625,0.75485 1.75,1.54235 1.75,1.75 0,0.82304 -0.8212,0.29331 -2.1276,-1.37244 z M 785,524 c 0.5887,-1.1 1.29537,-2 1.57037,-2 0.275,0 0.0183,0.9 -0.57037,2 -0.5887,1.1 -1.29537,2 -1.57037,2 -0.275,0 -0.0183,-0.9 0.57037,-2 z m 1512,1.62244 c 0,-0.20765 0.7875,-0.99515 1.75,-1.75 1.5861,-1.24387 1.6214,-1.2085 0.3776,0.37756 -1.3064,1.66575 -2.1276,2.19548 -2.1276,1.37244 z M 405.48992,521.98369 c -0.34546,-0.55897 -1.11655,-0.71444 -1.71353,-0.34549 -0.66346,0.41004 -0.79636,0.20313 -0.34187,-0.53225 0.56934,-0.92122 1.07409,-0.92873 2.15451,-0.0321 1.41519,1.1745 1.7937,1.92611 0.96999,1.92611 -0.24254,0 -0.72364,-0.45734 -1.0691,-1.01631 z M 788,519 c 0.5887,-1.1 1.29537,-2 1.57037,-2 0.275,0 0.0183,0.9 -0.57037,2 -0.5887,1.1 -1.29537,2 -1.57037,2 -0.275,0 -0.0183,-0.9 0.57037,-2 z m 629.8724,-2.75 c -1.2438,-1.58606 -1.2085,-1.62143 0.3776,-0.37756 0.9625,0.75485 1.75,1.54235 1.75,1.75 0,0.82304 -0.8212,0.29331 -2.1276,-1.37244 z m 903,-1 c -1.2438,-1.58606 -1.2085,-1.62143 0.3776,-0.37756 1.6657,1.30637 2.1955,2.12756 1.3724,2.12756 -0.2076,0 -0.9951,-0.7875 -1.75,-1.75 z M 790,515.05902 c 0,-0.51754 0.44485,-1.21592 0.98855,-1.55194 0.56686,-0.35034 0.7345,0.0511 0.39301,0.94098 C 790.71677,516.18048 790,516.49745 790,515.05902 Z m 3.56429,-6.35215 c 0.37553,-0.98622 0.93469,-1.54122 1.24258,-1.23333 0.30789,0.30789 6.4e-4,1.11479 -0.68278,1.79313 -0.98762,0.98026 -1.10248,0.8654 -0.5598,-0.5598 z M 698,505.5 c 1.29175,-1.375 2.57363,-2.5 2.84863,-2.5 0.275,0 -0.55688,1.125 -1.84863,2.5 -1.29175,1.375 -2.57363,2.5 -2.84863,2.5 -0.275,0 0.55688,-1.125 1.84863,-2.5 z m 97.56429,-0.79313 c 0.37553,-0.98622 0.93469,-1.54122 1.24258,-1.23333 0.30789,0.30789 6.4e-4,1.11479 -0.68278,1.79313 -0.98762,0.98026 -1.10248,0.8654 -0.5598,-0.5598 z M 1220.1579,503 c 0,-1.375 0.227,-1.9375 0.5044,-1.25 0.2774,0.6875 0.2774,1.8125 0,2.5 -0.2774,0.6875 -0.5044,0.125 -0.5044,-1.25 z m -121.079,-0.58333 c 0.048,-1.16495 0.285,-1.4019 0.6042,-0.60417 0.2889,0.72187 0.2534,1.58438 -0.079,1.91667 -0.3323,0.33229 -0.5687,-0.25834 -0.5253,-1.3125 z M 2215.1579,502 c 0,-1.375 0.227,-1.9375 0.5044,-1.25 0.2774,0.6875 0.2774,1.8125 0,2.5 -0.2774,0.6875 -0.5044,0.125 -0.5044,-1.25 z m 668,-3 c 0,-1.375 0.227,-1.9375 0.5044,-1.25 0.2774,0.6875 0.2774,1.8125 0,2.5 -0.2774,0.6875 -0.5044,0.125 -0.5044,-1.25 z M 216.07895,496.41667 c 0.048,-1.16495 0.28494,-1.4019 0.60416,-0.60417 0.28887,0.72187 0.25335,1.58438 -0.0789,1.91667 -0.3323,0.33229 -0.56864,-0.25834 -0.52522,-1.3125 z M 706,495 c 1.1749,-1.65 2.36119,-3 2.63619,-3 0.275,0 -0.46129,1.35 -1.63619,3 -1.1749,1.65 -2.36119,3 -2.63619,3 -0.275,0 0.46129,-1.35 1.63619,-3 z m 94.03063,0.5 c 0,-0.55 0.43621,-1.675 0.96937,-2.5 0.53316,-0.825 0.96937,-1.05 0.96937,-0.5 0,0.55 -0.43621,1.675 -0.96937,2.5 -0.53316,0.825 -0.96937,1.05 -0.96937,0.5 z m 300.04827,-4.08333 c 0.048,-1.16495 0.285,-1.4019 0.6042,-0.60417 0.2889,0.72187 0.2534,1.58438 -0.079,1.91667 -0.3323,0.33229 -0.5687,-0.25834 -0.5253,-1.3125 z m 1708.374,-4.66667 -3.9529,-4.25 4.25,3.95295 c 3.9525,3.6762 4.7095,4.54705 3.9529,4.54705 -0.1633,0 -2.0758,-1.9125 -4.25,-4.25 z m -2591.37395,1.66667 c 0.048,-1.16495 0.28494,-1.4019 0.60416,-0.60417 0.28887,0.72187 0.25335,1.58438 -0.0789,1.91667 -0.3323,0.33229 -0.56864,-0.25834 -0.52522,-1.3125 z M 2883.1579,487 c 0,-1.375 0.227,-1.9375 0.5044,-1.25 0.2774,0.6875 0.2774,1.8125 0,2.5 -0.2774,0.6875 -0.5044,0.125 -0.5044,-1.25 z M 804.03063,485.5 c 0,-0.55 0.43621,-1.675 0.96937,-2.5 0.53316,-0.825 0.96937,-1.05 0.96937,-0.5 0,0.55 -0.43621,1.675 -0.96937,2.5 -0.53316,0.825 -0.96937,1.05 -0.96937,0.5 z m -585.74462,-12 c 0.008,-2.75 0.20172,-3.75631 0.43157,-2.23625 0.22986,1.52006 0.22371,3.77006 -0.0136,5 -0.23736,1.22994 -0.42542,-0.0138 -0.41792,-2.76375 z m 960.96619,-4 c 0.011,-2.2 0.2159,-2.98225 0.4551,-1.73834 0.2392,1.24391 0.2301,3.04391 -0.02,4 -0.2503,0.95609 -0.446,-0.0617 -0.4349,-2.26166 z m 1417.8267,-0.0833 c 0.048,-1.16495 0.285,-1.4019 0.6042,-0.60417 0.2889,0.72187 0.2534,1.58438 -0.079,1.91667 -0.3323,0.33229 -0.5687,-0.25834 -0.5253,-1.3125 z m -2378.99995,-3 c 0.048,-1.16495 0.28494,-1.4019 0.60416,-0.60417 0.28887,0.72187 0.25335,1.58438 -0.0789,1.91667 -0.3323,0.33229 -0.56864,-0.25834 -0.52522,-1.3125 z m 593,-2 c 0.048,-1.16495 0.28494,-1.4019 0.60416,-0.60417 0.28887,0.72187 0.25335,1.58438 -0.0789,1.91667 -0.33229,0.33229 -0.56864,-0.25834 -0.52522,-1.3125 z M 724.03063,463.5 c 0,-0.55 0.43621,-1.675 0.96937,-2.5 0.53316,-0.825 0.96937,-1.05 0.96937,-0.5 0,0.55 -0.43621,1.675 -0.96937,2.5 -0.53316,0.825 -0.96937,1.05 -0.96937,0.5 z m -505.95168,-2.08333 c 0.048,-1.16495 0.28494,-1.4019 0.60416,-0.60417 0.28887,0.72187 0.25335,1.58438 -0.0789,1.91667 -0.3323,0.33229 -0.56864,-0.25834 -0.52522,-1.3125 z m 595,-4 c 0.048,-1.16495 0.28494,-1.4019 0.60416,-0.60417 0.28887,0.72187 0.25335,1.58438 -0.0789,1.91667 -0.33229,0.33229 -0.56864,-0.25834 -0.52522,-1.3125 z M 218.34281,450.5 c 0.004,-4.4 0.17944,-6.07561 0.39069,-3.72357 0.21124,2.35204 0.20827,5.95204 -0.007,8 -0.21487,2.04796 -0.38771,0.12357 -0.38408,-4.27643 z m 2379.85209,5 c 0.02,-1.65 0.2445,-2.20394 0.4981,-1.23097 0.2535,0.97297 0.2369,2.32297 -0.037,3 -0.2739,0.67703 -0.4813,-0.11903 -0.461,-1.76903 z M 814.07895,453.41667 c 0.048,-1.16495 0.28494,-1.4019 0.60416,-0.60417 0.28887,0.72187 0.25335,1.58438 -0.0789,1.91667 -0.33229,0.33229 -0.56864,-0.25834 -0.52522,-1.3125 z m 1,-4 c 0.048,-1.16495 0.28494,-1.4019 0.60416,-0.60417 0.28887,0.72187 0.25335,1.58438 -0.0789,1.91667 -0.33229,0.33229 -0.56864,-0.25834 -0.52522,-1.3125 z m 1,-5 c 0.048,-1.16495 0.28494,-1.4019 0.60416,-0.60417 0.28887,0.72187 0.25335,1.58438 -0.0789,1.91667 -0.33229,0.33229 -0.56864,-0.25834 -0.52522,-1.3125 z m -455.26645,-0.0998 c 0.72187,-0.28887 1.58438,-0.25335 1.91667,0.0789 0.33229,0.33229 -0.25834,0.56864 -1.3125,0.52522 -1.16495,-0.048 -1.4019,-0.28494 -0.60417,-0.60416 z m 14,0 c 0.72187,-0.28887 1.58438,-0.25335 1.91667,0.0789 0.33229,0.33229 -0.25834,0.56864 -1.3125,0.52522 -1.16495,-0.048 -1.4019,-0.28494 -0.60417,-0.60416 z m 442.26645,-4.90022 c 0.048,-1.16495 0.28494,-1.4019 0.60416,-0.60417 0.28887,0.72187 0.25335,1.58438 -0.0789,1.91667 -0.33229,0.33229 -0.56864,-0.25834 -0.52522,-1.3125 z m 1857.99995,-4 c 0.048,-1.16495 0.285,-1.4019 0.6042,-0.60417 0.2889,0.72187 0.2534,1.58438 -0.079,1.91667 -0.3323,0.33229 -0.5687,-0.25834 -0.5253,-1.3125 z M 818.15789,434 c 0,-1.375 0.22698,-1.9375 0.50439,-1.25 0.27741,0.6875 0.27741,1.8125 0,2.5 -0.27741,0.6875 -0.50439,0.125 -0.50439,-1.25 z m -83.07894,-5.58333 c 0.048,-1.16495 0.28494,-1.4019 0.60416,-0.60417 0.28887,0.72187 0.25335,1.58438 -0.0789,1.91667 -0.33229,0.33229 -0.56864,-0.25834 -0.52522,-1.3125 z M 2598.232,427 c 0,-1.925 0.2058,-2.7125 0.4573,-1.75 0.2516,0.9625 0.2516,2.5375 0,3.5 -0.2515,0.9625 -0.4573,0.175 -0.4573,-1.75 z m -1779.15305,0.41667 c 0.048,-1.16495 0.28494,-1.4019 0.60416,-0.60417 0.28887,0.72187 0.25335,1.58438 -0.0789,1.91667 -0.33229,0.33229 -0.56864,-0.25834 -0.52522,-1.3125 z M 217.36523,417.5 c 0.003,-5.5 0.17053,-7.62242 0.37317,-4.71648 0.20265,2.90594 0.20052,7.40594 -0.005,10 -0.20525,2.59406 -0.37104,0.21648 -0.36844,-5.28352 z m 518.71372,5.91667 c 0.048,-1.16495 0.28494,-1.4019 0.60416,-0.60417 0.28887,0.72187 0.25335,1.58438 -0.0789,1.91667 -0.33229,0.33229 -0.56864,-0.25834 -0.52522,-1.3125 z m 84.116,-3.91667 c 0.0204,-1.65 0.2445,-2.20394 0.49804,-1.23097 0.25354,0.97297 0.23687,2.32297 -0.0371,3 -0.27393,0.67703 -0.48137,-0.11903 -0.46099,-1.76903 z M 737.15789,417 c 0,-1.375 0.22698,-1.9375 0.50439,-1.25 0.27741,0.6875 0.27741,1.8125 0,2.5 -0.27741,0.6875 -0.50439,0.125 -0.50439,-1.25 z m 1548.65461,1.31689 c 0.7219,-0.28887 1.5844,-0.25335 1.9167,0.0789 0.3323,0.33229 -0.2584,0.56864 -1.3125,0.52522 -1.165,-0.048 -1.4019,-0.28494 -0.6042,-0.60416 z m 9,-1 c 0.7219,-0.28887 1.5844,-0.25335 1.9167,0.0789 0.3323,0.33229 -0.2584,0.56864 -1.3125,0.52522 -1.165,-0.048 -1.4019,-0.28494 -0.6042,-0.60416 z M 2694.8724,414.25 c -1.2438,-1.58606 -1.2085,-1.62143 0.3776,-0.37756 1.6657,1.30637 2.1955,2.12756 1.3724,2.12756 -0.2076,0 -0.9951,-0.7875 -1.75,-1.75 z M 2675.1579,413 c 0,-1.375 0.227,-1.9375 0.5044,-1.25 0.2774,0.6875 0.2774,1.8125 0,2.5 -0.2774,0.6875 -0.5044,0.125 -0.5044,-1.25 z M 821.27236,408 c 0,-2.475 0.19502,-3.4875 0.43337,-2.25 0.23836,1.2375 0.23836,3.2625 0,4.5 -0.23835,1.2375 -0.43337,0.225 -0.43337,-2.25 z m -83.07741,0.5 c 0.0204,-1.65 0.2445,-2.20394 0.49804,-1.23097 0.25354,0.97297 0.23687,2.32297 -0.0371,3 -0.27393,0.67703 -0.48137,-0.11903 -0.46099,-1.76903 z m -521.116,-4.08333 c 0.048,-1.16495 0.28494,-1.4019 0.60416,-0.60417 0.28887,0.72187 0.25335,1.58438 -0.0789,1.91667 -0.3323,0.33229 -0.56864,-0.25834 -0.52522,-1.3125 z m 2456.99995,-3 c 0.048,-1.16495 0.285,-1.4019 0.6042,-0.60417 0.2889,0.72187 0.2534,1.58438 -0.079,1.91667 -0.3323,0.33229 -0.5687,-0.25834 -0.5253,-1.3125 z m -2456.99995,-2 c 0.048,-1.16495 0.28494,-1.4019 0.60416,-0.60417 0.28887,0.72187 0.25335,1.58438 -0.0789,1.91667 -0.3323,0.33229 -0.56864,-0.25834 -0.52522,-1.3125 z M 739.33621,390 c 0,-4.125 0.17651,-5.8125 0.39226,-3.75 0.21574,2.0625 0.21574,5.4375 0,7.5 -0.21575,2.0625 -0.39226,0.375 -0.39226,-3.75 z m -522.17832,4 c 0,-1.375 0.22698,-1.9375 0.50439,-1.25 0.27741,0.6875 0.27741,1.8125 0,2.5 -0.27741,0.6875 -0.50439,0.125 -0.50439,-1.25 z m 604.92106,-1.58333 c 0.048,-1.16495 0.28494,-1.4019 0.60416,-0.60417 0.28887,0.72187 0.25335,1.58438 -0.0789,1.91667 -0.33229,0.33229 -0.56864,-0.25834 -0.52522,-1.3125 z M 217.32814,384.5 c 0.004,-3.85 0.18518,-5.30246 0.40166,-3.2277 0.21647,2.07477 0.21284,5.22477 -0.008,7 -0.22091,1.77524 -0.39803,0.0777 -0.39359,-3.7723 z m 604.86681,3 c 0.0204,-1.65 0.2445,-2.20394 0.49804,-1.23097 0.25354,0.97297 0.23687,2.32297 -0.0371,3 -0.27393,0.67703 -0.48137,-0.11903 -0.46099,-1.76903 z M 539,385.62244 c 0,-0.20765 0.7875,-0.99515 1.75,-1.75 1.58606,-1.24387 1.62143,-1.2085 0.37756,0.37756 C 539.82119,385.91575 539,386.44548 539,385.62244 Z m -223.92105,-3.20577 c 0.048,-1.16495 0.28494,-1.4019 0.60416,-0.60417 0.28887,0.72187 0.25335,1.58438 -0.0789,1.91667 -0.33229,0.33229 -0.56864,-0.25834 -0.52522,-1.3125 z m 2062.99995,-2 c 0.048,-1.16495 0.285,-1.4019 0.6042,-0.60417 0.2889,0.72187 0.2534,1.58438 -0.079,1.91667 -0.3323,0.33229 -0.5687,-0.25834 -0.5253,-1.3125 z m -2063.99995,-4 c 0.048,-1.16495 0.28494,-1.4019 0.60416,-0.60417 0.28887,0.72187 0.25335,1.58438 -0.0789,1.91667 -0.33229,0.33229 -0.56864,-0.25834 -0.52522,-1.3125 z M 738.19495,370.5 c 0.0204,-1.65 0.2445,-2.20394 0.49804,-1.23097 0.25354,0.97297 0.23687,2.32297 -0.0371,3 -0.27393,0.67703 -0.48137,-0.11903 -0.46099,-1.76903 z M 2304.1579,370 c 0,-1.375 0.227,-1.9375 0.5044,-1.25 0.2774,0.6875 0.2774,1.8125 0,2.5 -0.2774,0.6875 -0.5044,0.125 -0.5044,-1.25 z m 445.2792,-1.25 -2.9371,-3.25 3.25,2.93709 c 3.0295,2.73778 3.7097,3.56291 2.9371,3.56291 -0.1721,0 -1.6346,-1.4625 -3.25,-3.25 z M 821.25218,366.5 c 0.0111,-2.2 0.21589,-2.98225 0.45508,-1.73834 0.23919,1.24391 0.23011,3.04391 -0.0202,4 -0.25029,0.95609 -0.446,-0.0617 -0.4349,-2.26166 z m 1856.03382,-1 c 0.01,-2.75 0.2017,-3.75631 0.4316,-2.23625 0.2298,1.52006 0.2237,3.77006 -0.014,5 -0.2373,1.22994 -0.4254,-0.0138 -0.4179,-2.76375 z M 218.27236,364 c 0,-2.475 0.19502,-3.4875 0.43337,-2.25 0.23836,1.2375 0.23836,3.2625 0,4.5 -0.23835,1.2375 -0.43337,0.225 -0.43337,-2.25 z m 95.01365,-2.5 c 0.008,-2.75 0.20172,-3.75631 0.43157,-2.23625 0.22986,1.52006 0.22371,3.77006 -0.0136,5 -0.23736,1.22994 -0.42542,-0.0138 -0.41792,-2.76375 z m 423.79294,-0.0833 c 0.048,-1.16495 0.28494,-1.4019 0.60416,-0.60417 0.28887,0.72187 0.25335,1.58438 -0.0789,1.91667 -0.33229,0.33229 -0.56864,-0.25834 -0.52522,-1.3125 z M 579,358.62244 c 0,-0.20765 0.7875,-0.99515 1.75,-1.75 1.58606,-1.24387 1.62143,-1.2085 0.37756,0.37756 C 579.82119,358.91575 579,359.44548 579,358.62244 Z M 820.232,356 c 0,-1.925 0.2058,-2.7125 0.45733,-1.75 0.25152,0.9625 0.25152,2.5375 0,3.5 -0.25153,0.9625 -0.45733,0.175 -0.45733,-1.75 z m -601.07411,-6 c 0,-1.375 0.22698,-1.9375 0.50439,-1.25 0.27741,0.6875 0.27741,1.8125 0,2.5 -0.27741,0.6875 -0.50439,0.125 -0.50439,-1.25 z m 600,-2 c 0,-1.375 0.22698,-1.9375 0.50439,-1.25 0.27741,0.6875 0.27741,1.8125 0,2.5 -0.27741,0.6875 -0.50439,0.125 -0.50439,-1.25 z m -505.07894,-2.58333 c 0.048,-1.16495 0.28494,-1.4019 0.60416,-0.60417 0.28887,0.72187 0.25335,1.58438 -0.0789,1.91667 -0.33229,0.33229 -0.56864,-0.25834 -0.52522,-1.3125 z M 2737.1949,340.5 c 0.02,-1.65 0.2445,-2.20394 0.4981,-1.23097 0.2535,0.97297 0.2369,2.32297 -0.037,3 -0.2739,0.67703 -0.4813,-0.11903 -0.461,-1.76903 z M 220.07895,340.4167 c 0.048,-1.16495 0.28494,-1.4019 0.60416,-0.60417 0.28887,0.72187 0.25335,1.58438 -0.0789,1.91667 -0.3323,0.33229 -0.56864,-0.25834 -0.52522,-1.3125 z m 598,0 c 0.048,-1.16495 0.28494,-1.4019 0.60416,-0.60417 0.28887,0.72187 0.25335,1.58438 -0.0789,1.91667 -0.33229,0.33229 -0.56864,-0.25834 -0.52522,-1.3125 z m -503,-3 c 0.048,-1.16495 0.28494,-1.4019 0.60416,-0.60417 0.28887,0.72187 0.25335,1.58438 -0.0789,1.91667 -0.33229,0.33229 -0.56864,-0.25834 -0.52522,-1.3125 z m 502,-2 c 0.048,-1.16495 0.28494,-1.4019 0.60416,-0.60417 0.28887,0.72187 0.25335,1.58438 -0.0789,1.91667 -0.33229,0.33229 -0.56864,-0.25834 -0.52522,-1.3125 z m -596,-3 c 0.048,-1.16495 0.28494,-1.4019 0.60416,-0.60417 0.28887,0.72187 0.25335,1.58438 -0.0789,1.91667 -0.3323,0.33229 -0.56864,-0.25834 -0.52522,-1.3125 z M 619,331.62244 c 0,-0.20765 0.7875,-0.99515 1.75,-1.75 1.58606,-1.24387 1.62143,-1.2085 0.37756,0.37756 C 619.82119,331.91575 619,332.44548 619,331.62244 Z m 197.07895,-1.20577 c 0.048,-1.16495 0.28494,-1.4019 0.60416,-0.60417 0.28887,0.72187 0.25335,1.58438 -0.0789,1.91667 -0.33229,0.33229 -0.56864,-0.25834 -0.52522,-1.3125 z M 222.15789,325 c 0,-1.375 0.22698,-1.9375 0.50439,-1.25 0.27741,0.6875 0.27741,1.8125 0,2.5 -0.27741,0.6875 -0.50439,0.125 -0.50439,-1.25 z m 0.92106,-6.58333 c 0.048,-1.16495 0.28494,-1.4019 0.60416,-0.60417 0.28887,0.72187 0.25335,1.58438 -0.0789,1.91667 -0.3323,0.33229 -0.56864,-0.25834 -0.52522,-1.3125 z m 500.37993,-3.4832 c -0.36253,-0.58659 -0.44468,-1.281 -0.18255,-1.54313 0.26212,-0.26213 0.74306,0.21781 1.06875,1.06653 0.67618,1.76211 0.0998,2.07206 -0.8862,0.4766 z m -499.37993,-2.5168 c 0.048,-1.16495 0.28494,-1.4019 0.60416,-0.60417 0.28887,0.72187 0.25335,1.58438 -0.0789,1.91667 -0.3323,0.33229 -0.56864,-0.25834 -0.52522,-1.3125 z m 1,-5 c 0.048,-1.16495 0.28494,-1.4019 0.60416,-0.60417 0.28887,0.72187 0.25335,1.58438 -0.0789,1.91667 -0.3323,0.33229 -0.56864,-0.25834 -0.52522,-1.3125 z M 720,308.05902 c 0,-0.51754 0.44485,-1.21592 0.98855,-1.55194 0.56686,-0.35034 0.7345,0.0511 0.39301,0.94098 C 720.71677,309.18048 720,309.49745 720,308.05902 Z m -61,-3.43658 c 0,-0.20765 0.7875,-0.99515 1.75,-1.75 1.58606,-1.24387 1.62143,-1.2085 0.37756,0.37756 C 659.82119,304.91575 659,305.44548 659,304.62244 Z m 1590.25,-5.31177 c 0.9625,-0.25152 2.5375,-0.25152 3.5,0 0.9625,0.25153 0.175,0.45733 -1.75,0.45733 -1.925,0 -2.7125,-0.2058 -1.75,-0.45733 z m -634.0554,-1.05632 c 5.882,-0.17649 15.782,-0.17711 22,-10e-4 6.218,0.17574 1.4054,0.32014 -10.6946,0.32089 -12.1,7.6e-4 -17.1874,-0.14302 -11.3054,-0.31951 z m 1171.5671,0.0384 c 1.2439,-0.23919 3.0439,-0.23011 4,0.0202 0.956,0.25029 -0.062,0.446 -2.2617,0.4349 -2.2,-0.0111 -2.9823,-0.21589 -1.7383,-0.45508 z m -503.9492,-5.97585 c 0.7219,-0.28887 1.5844,-0.25335 1.9167,0.0789 0.3323,0.33229 -0.2584,0.56864 -1.3125,0.52522 -1.165,-0.048 -1.4019,-0.28494 -0.6042,-0.60416 z m 276,-1 c 0.7219,-0.28887 1.5844,-0.25335 1.9167,0.0789 0.3323,0.33229 -0.2584,0.56864 -1.3125,0.52522 -1.165,-0.048 -1.4019,-0.28494 -0.6042,-0.60416 z m 12.9375,0.0208 c 0.6875,-0.27741 1.8125,-0.27741 2.5,0 0.6875,0.27741 0.125,0.50439 -1.25,0.50439 -1.375,0 -1.9375,-0.22698 -1.25,-0.50439 z m 202.0625,-0.0208 c 0.7219,-0.28887 1.5844,-0.25335 1.9167,0.0789 0.3323,0.33229 -0.2584,0.56864 -1.3125,0.52522 -1.165,-0.048 -1.4019,-0.28494 -0.6042,-0.60416 z m 22,0 c 0.7219,-0.28887 1.5844,-0.25335 1.9167,0.0789 0.3323,0.33229 -0.2584,0.56864 -1.3125,0.52522 -1.165,-0.048 -1.4019,-0.28494 -0.6042,-0.60416 z M 750,287.63619 c 0,-0.275 1.35,-1.46129 3,-2.63619 1.65,-1.1749 3,-1.91119 3,-1.63619 0,0.275 -1.35,1.46129 -3,2.63619 -1.65,1.1749 -3,1.91119 -3,1.63619 z m 47.45888,-14.70272 c -0.36253,-0.58659 -0.44468,-1.281 -0.18255,-1.54313 0.26212,-0.26213 0.74306,0.21781 1.06875,1.06653 0.67618,1.76211 0.0998,2.07206 -0.8862,0.4766 z M 641,272.62244 c 0,-0.20765 0.7875,-0.99515 1.75,-1.75 1.58606,-1.24387 1.62143,-1.2085 0.37756,0.37756 C 641.82119,272.91575 641,273.44548 641,272.62244 Z m 8.95821,-7.87244 c 2.45201,-2.6125 4.58951,-4.75 4.75,-4.75 0.75088,0 -0.043,0.89783 -4.45821,5.04179 L 645.5,269.5 Z M 358,240.62244 c 0,-0.20765 0.7875,-0.99515 1.75,-1.75 1.58606,-1.24387 1.62143,-1.2085 0.37756,0.37756 C 358.82119,240.91575 358,241.44548 358,240.62244 Z m 4,-5 c 0,-0.20765 0.7875,-0.99515 1.75,-1.75 1.58606,-1.24387 1.62143,-1.2085 0.37756,0.37756 C 362.82119,235.91575 362,236.44548 362,235.62244 Z M 666.30987,230.5 c 0.006,-3.3 0.1923,-4.52944 0.41486,-2.73209 0.22256,1.79735 0.21797,4.49735 -0.0102,6 -0.22818,1.50265 -0.41027,0.0321 -0.40466,-3.26791 z M 368.5,228 c 0.99549,-1.1 2.03498,-2 2.30998,-2 0.275,0 -0.31449,0.9 -1.30998,2 -0.99549,1.1 -2.03498,2 -2.30998,2 -0.275,0 0.31449,-0.9 1.30998,-2 z m 12,-13 c 3.8205,-3.85 7.17136,-7 7.44636,-7 0.275,0 -2.62586,3.15 -6.44636,7 -3.8205,3.85 -7.17136,7 -7.44636,7 -0.275,0 2.62586,-3.15 6.44636,-7 z M 393,203.5 c 1.29175,-1.375 2.57363,-2.5 2.84863,-2.5 0.275,0 -0.55688,1.125 -1.84863,2.5 -1.29175,1.375 -2.57363,2.5 -2.84863,2.5 -0.275,0 0.55688,-1.125 1.84863,-2.5 z m 6.5,-5.5 c 0.99549,-1.1 2.03498,-2 2.30998,-2 0.275,0 -0.31449,0.9 -1.30998,2 -0.99549,1.1 -2.03498,2 -2.30998,2 -0.275,0 0.31449,-0.9 1.30998,-2 z m 250.93709,-3.25 -2.93709,-3.25 3.25,2.93709 c 1.7875,1.6154 3.25,3.0779 3.25,3.25 0,0.77256 -0.82513,0.0924 -3.56291,-2.93709 z m -10,-10 -2.93709,-3.25 3.25,2.93709 c 1.7875,1.6154 3.25,3.0779 3.25,3.25 0,0.77256 -0.82513,0.0924 -3.56291,-2.93709 z M 1120.25,184.25125 c 10.8625,-0.16144 28.6375,-0.16144 39.5,0 10.8625,0.16144 1.975,0.29353 -19.75,0.29353 -21.725,0 -30.6125,-0.13209 -19.75,-0.29353 z m 835,0 c 10.8625,-0.16144 28.6375,-0.16144 39.5,0 10.8625,0.16144 1.975,0.29353 -19.75,0.29353 -21.725,0 -30.6125,-0.13209 -19.75,-0.29353 z M 284,168.62244 c 0,-0.20765 0.7875,-0.99515 1.75,-1.75 1.58606,-1.24387 1.62143,-1.2085 0.37756,0.37756 C 284.82119,168.91575 284,169.44548 284,168.62244 Z m 2140.25,-3.37106 c 10.3125,-0.16253 27.1875,-0.16253 37.5,0 10.3125,0.16253 1.875,0.2955 -18.75,0.2955 -20.625,0 -29.0625,-0.13297 -18.75,-0.2955 z M 287,164.62244 c 0,-0.20765 0.7875,-0.99515 1.75,-1.75 1.58606,-1.24387 1.62143,-1.2085 0.37756,0.37756 C 287.82119,164.91575 287,165.44548 287,164.62244 Z M 293.5,157 c 0.99549,-1.1 2.03498,-2 2.30998,-2 0.275,0 -0.31449,0.9 -1.30998,2 -0.99549,1.1 -2.03498,2 -2.30998,2 -0.275,0 0.31449,-0.9 1.30998,-2 z m 205.3125,-1.68311 c 0.72187,-0.28887 1.58438,-0.25335 1.91667,0.0789 0.33229,0.33229 -0.25834,0.56864 -1.3125,0.52522 -1.16495,-0.048 -1.4019,-0.28494 -0.60417,-0.60416 z m 6,-1 c 0.72187,-0.28887 1.58438,-0.25335 1.91667,0.0789 0.33229,0.33229 -0.25834,0.56864 -1.3125,0.52522 -1.16495,-0.048 -1.4019,-0.28494 -0.60417,-0.60416 z m 68,0 c 0.72187,-0.28887 1.58438,-0.25335 1.91667,0.0789 0.33229,0.33229 -0.25834,0.56864 -1.3125,0.52522 -1.16495,-0.048 -1.4019,-0.28494 -0.60417,-0.60416 z M 511.75,153.33772 c 0.6875,-0.27741 1.8125,-0.27741 2.5,0 0.6875,0.27741 0.125,0.50439 -1.25,0.50439 -1.375,0 -1.9375,-0.22698 -1.25,-0.50439 z m 54,0 c 0.6875,-0.27741 1.8125,-0.27741 2.5,0 0.6875,0.27741 0.125,0.50439 -1.25,0.50439 -1.375,0 -1.9375,-0.22698 -1.25,-0.50439 z M 300,149.5 c 1.86578,-1.925 3.61733,-3.5 3.89233,-3.5 0.275,0 -1.02655,1.575 -2.89233,3.5 -1.86578,1.925 -3.61733,3.5 -3.89233,3.5 -0.275,0 1.02655,-1.575 2.89233,-3.5 z m 222.26903,2.80701 c 0.97297,-0.25354 2.32297,-0.23687 3,0.0371 0.67703,0.27393 -0.11903,0.48137 -1.76903,0.46099 -1.65,-0.0204 -2.20394,-0.2445 -1.23097,-0.49804 z m 33.49263,-0.0143 c 1.24391,-0.23919 3.04391,-0.23011 4,0.0202 0.95609,0.25029 -0.0617,0.446 -2.26166,0.4349 -2.2,-0.0111 -2.98225,-0.21589 -1.73834,-0.45508 z M 318,131.5 c 1.86578,-1.925 3.61733,-3.5 3.89233,-3.5 0.275,0 -1.02655,1.575 -2.89233,3.5 -1.86578,1.925 -3.61733,3.5 -3.89233,3.5 -0.275,0 1.02655,-1.575 2.89233,-3.5 z m 470.25,-4.18933 c 0.9625,-0.25152 2.5375,-0.25152 3.5,0 0.9625,0.25153 0.175,0.45733 -1.75,0.45733 -1.925,0 -2.7125,-0.2058 -1.75,-0.45733 z m 20,0 c 0.9625,-0.25152 2.5375,-0.25152 3.5,0 0.9625,0.25153 0.175,0.45733 -1.75,0.45733 -1.925,0 -2.7125,-0.2058 -1.75,-0.45733 z m -28.4375,-0.99378 c 0.72187,-0.28887 1.58438,-0.25335 1.91667,0.0789 0.33229,0.3323 -0.25834,0.56864 -1.3125,0.52522 -1.16495,-0.048 -1.4019,-0.28494 -0.60417,-0.60416 z m 39,0 c 0.72187,-0.28887 1.58438,-0.25335 1.91667,0.0789 0.33229,0.3323 -0.25834,0.56864 -1.3125,0.52522 -1.16495,-0.048 -1.4019,-0.28494 -0.60417,-0.60416 z m -45,-1 c 0.72187,-0.28887 1.58438,-0.25335 1.91667,0.0789 0.33229,0.3323 -0.25834,0.56864 -1.3125,0.52522 -1.16495,-0.048 -1.4019,-0.28494 -0.60417,-0.60416 z M 326,124.62244 c 0,-0.20765 0.7875,-0.99515 1.75,-1.75 1.58606,-1.24387 1.62143,-1.2085 0.37756,0.37756 C 326.82119,124.91575 326,125.44548 326,124.62244 Z m 6,-5 c 0,-0.20765 0.7875,-0.99515 1.75,-1.75 1.58606,-1.24387 1.62143,-1.2085 0.37756,0.37756 C 332.82119,119.91575 332,120.44548 332,119.62244 Z m 4,-3 c 0,-0.20765 0.7875,-0.99515 1.75,-1.75 1.58606,-1.24387 1.62143,-1.2085 0.37756,0.37756 C 336.82119,116.91575 336,117.44548 336,116.62244 Z m 8,-6 c 0,-0.20765 0.7875,-0.99515 1.75,-1.75 1.58606,-1.24387 1.62143,-1.2085 0.37756,0.37756 C 344.82119,110.91575 344,111.44548 344,110.62244 Z m 16,-11.052072 c 0,-0.275 0.9,-0.981666 2,-1.570368 1.1,-0.588702 2,-0.845368 2,-0.570368 0,0.275 -0.9,0.981666 -2,1.570368 -1.1,0.588702 -2,0.845368 -2,0.570368 z m 11,-6.963379 c 0,-0.216156 0.69837,-0.661002 1.55194,-0.988546 0.88992,-0.341496 1.29132,-0.173849 0.94098,0.393011 C 372.90566,92.961658 371,93.416902 371,92.606989 Z m 7,-4 c 0,-0.216156 0.69837,-0.661002 1.55194,-0.988546 0.88992,-0.341496 1.29132,-0.173849 0.94098,0.393011 C 379.90566,88.961658 378,89.416902 378,88.606989 Z m 6,-3 c 0,-0.216156 0.69837,-0.661002 1.55194,-0.988546 0.88992,-0.341496 1.29132,-0.173849 0.94098,0.393011 C 385.90566,85.961658 384,86.416902 384,85.606989 Z m 4,-2 c 0,-0.216156 0.69837,-0.661002 1.55194,-0.988546 0.88992,-0.341496 1.29132,-0.173849 0.94098,0.393011 C 389.90566,83.961658 388,84.416902 388,83.606989 Z M 393,81 c 0.825,-0.533156 1.95,-0.969374 2.5,-0.969374 0.55,0 0.325,0.436218 -0.5,0.969374 -0.825,0.533156 -1.95,0.969374 -2.5,0.969374 -0.55,0 -0.325,-0.436218 0.5,-0.969374 z m 542,-0.429632 c 0,-0.275 0.9,-0.981666 2,-1.570368 1.1,-0.588702 2,-0.845368 2,-0.570368 0,0.275 -0.9,0.981666 -2,1.570368 -1.1,0.588702 -2,0.845368 -2,0.570368 z m 16,-10 c 0,-0.275 0.9,-0.981666 2,-1.570368 1.1,-0.588702 2,-0.845368 2,-0.570368 0,0.275 -0.9,0.981666 -2,1.570368 -1.1,0.588702 -2,0.845368 -2,0.570368 z M 605.8125,65.316886 c 0.72187,-0.288871 1.58438,-0.253344 1.91667,0.07895 0.33229,0.332292 -0.25834,0.568641 -1.3125,0.52522 -1.16495,-0.04798 -1.4019,-0.284941 -0.60417,-0.604167 z m -18,-4 c 0.72187,-0.288871 1.58438,-0.253344 1.91667,0.07895 0.33229,0.332292 -0.25834,0.568641 -1.3125,0.52522 -1.16495,-0.04798 -1.4019,-0.284941 -0.60417,-0.604167 z m -122,-3 c 0.72187,-0.288871 1.58438,-0.253344 1.91667,0.07895 0.33229,0.332292 -0.25834,0.568641 -1.3125,0.52522 -1.16495,-0.04798 -1.4019,-0.284941 -0.60417,-0.604167 z m 105,0 c 0.72187,-0.288871 1.58438,-0.253344 1.91667,0.07895 0.33229,0.332292 -0.25834,0.568641 -1.3125,0.52522 -1.16495,-0.04798 -1.4019,-0.284941 -0.60417,-0.604167 z m -99,-1 c 0.72187,-0.288871 1.58438,-0.253344 1.91667,0.07895 0.33229,0.332292 -0.25834,0.568641 -1.3125,0.52522 -1.16495,-0.04798 -1.4019,-0.284941 -0.60417,-0.604167 z m 92,0 c 0.72187,-0.288871 1.58438,-0.253344 1.91667,0.07895 0.33229,0.332292 -0.25834,0.568641 -1.3125,0.52522 -1.16495,-0.04798 -1.4019,-0.284941 -0.60417,-0.604167 z M 479.75,56.337719 c 0.6875,-0.277412 1.8125,-0.277412 2.5,0 0.6875,0.277413 0.125,0.504386 -1.25,0.504386 -1.375,0 -1.9375,-0.226973 -1.25,-0.504386 z m 75,0 c 0.6875,-0.277412 1.8125,-0.277412 2.5,0 0.6875,0.277413 0.125,0.504386 -1.25,0.504386 -1.375,0 -1.9375,-0.226973 -1.25,-0.504386 z m -65.48097,-1.03071 c 0.97297,-0.253543 2.32297,-0.236869 3,0.03705 0.67703,0.273923 -0.11903,0.481368 -1.76903,0.460988 -1.65,-0.02038 -2.20394,-0.244498 -1.23097,-0.498042 z m 53.98097,0.0037 c 0.9625,-0.251527 2.5375,-0.251527 3.5,0 0.9625,0.251528 0.175,0.457323 -1.75,0.457323 -1.925,0 -2.7125,-0.205795 -1.75,-0.457323 z M 509.79748,54.25528 c 4.56362,-0.185715 11.76362,-0.18468 16,0.0023 4.23639,0.186981 0.50252,0.33893 -8.29748,0.337664 -8.8,-0.0013 -12.26613,-0.15425 -7.70252,-0.339965 z M 1005,34.622445 c 0,-0.207656 0.7875,-0.995156 1.75,-1.75 1.5861,-1.243871 1.6214,-1.208501 0.3776,0.377555 -1.3064,1.665748 -2.1276,2.195479 -2.1276,1.372445 z"
         id="path8" />
      <path
         style="fill:#5a1acb"
         d="m 227.5,299 c -0.33992,-0.55 -0.14148,-1 0.44098,-1 0.58246,0 1.05902,0.45 1.05902,1 0,0.55 -0.19844,1 -0.44098,1 -0.24254,0 -0.7191,-0.45 -1.05902,-1 z m 1.0715,-5.74018 C 248.45627,203.95818 297.54787,135.70988 373.5,91.776823 c 4.72209,-2.731406 26.58852,-13.368512 33.10013,-16.101842 22.64672,-9.506231 53.51274,-16.963191 81.77095,-19.755146 21.26494,-2.101009 78.58601,0.263899 88.52205,3.652174 1.55546,0.530426 1.00047,1.470536 -1.0515,1.781147 -0.7379,0.111696 -1.97366,0.597459 -2.74614,1.079473 -1.00128,0.624783 -1.18196,0.516294 -0.62932,-0.377889 0.60832,-0.984292 0.31871,-1.009977 -1.34549,-0.119324 C 569.9543,62.559639 569,63.306092 569,63.594201 c 0,0.288108 0.51953,0.202747 1.15451,-0.189693 0.6991,-0.432067 0.8837,-0.275344 0.46797,0.39731 -0.37759,0.610959 -1.3016,0.874809 -2.05335,0.586334 -0.75176,-0.288474 -1.70688,0.02571 -2.12249,0.698183 -0.51505,0.833372 -0.33886,0.965086 0.55336,0.413665 0.8478,-0.523971 1.06713,-0.417629 0.62248,0.301818 -0.37759,0.610959 -1.3016,0.874809 -2.05335,0.586334 -0.75176,-0.288474 -1.70688,0.02571 -2.12249,0.698183 -0.51505,0.833372 -0.33886,0.965086 0.55336,0.413665 0.8478,-0.523971 1.06713,-0.417629 0.62248,0.301818 -0.37759,0.610959 -1.31979,0.86783 -2.09377,0.570825 -0.79521,-0.305151 -1.9773,0.413058 -2.71798,1.651377 -0.7209,1.205262 -6.03573,5.372375 -11.81073,9.260251 -5.775,3.887876 -9.825,6.23582 -9,5.217652 1.45496,-1.795629 1.41743,-1.797478 -1.25,-0.06156 -2.59884,1.691287 -4.0555,3.484512 -1.59549,1.964144 0.6991,-0.432067 0.8837,-0.275344 0.46797,0.39731 -0.37759,0.610959 -1.3016,0.874809 -2.05335,0.586334 -0.75176,-0.288474 -1.70688,0.02571 -2.12249,0.698183 -0.51505,0.833372 -0.33886,0.965086 0.55336,0.413665 0.8478,-0.523971 1.06713,-0.417629 0.62248,0.301818 -0.37759,0.610959 -1.3016,0.874809 -2.05335,0.586334 -0.75176,-0.288474 -1.70688,0.02571 -2.12249,0.698183 -0.51505,0.833372 -0.33886,0.965086 0.55336,0.413665 0.8478,-0.523971 1.06713,-0.417629 0.62248,0.301818 -0.37759,0.610959 -1.3016,0.874809 -2.05335,0.586334 -0.75176,-0.288474 -1.70688,0.02571 -2.12249,0.698183 -0.51505,0.833372 -0.33886,0.965086 0.55336,0.413665 0.8478,-0.523971 1.06713,-0.417629 0.62248,0.301818 -0.37759,0.610959 -1.3016,0.874809 -2.05335,0.586334 -0.75176,-0.288474 -1.70688,0.02571 -2.12249,0.698183 -0.51505,0.833372 -0.33886,0.965086 0.55336,0.413665 0.8478,-0.523971 1.06713,-0.417629 0.62248,0.301818 -0.37759,0.610959 -1.31979,0.86783 -2.09377,0.570825 -0.79521,-0.305151 -1.9773,0.413058 -2.71798,1.651377 -0.7209,1.205262 -6.03573,5.372371 -11.81073,9.260251 -5.775,3.88788 -9.825,6.23582 -9,5.21765 1.45496,-1.79563 1.41743,-1.79747 -1.25,-0.0616 -2.59884,1.69129 -4.0555,3.48452 -1.59549,1.96415 0.6991,-0.43207 0.8837,-0.27535 0.46797,0.39731 -0.37759,0.61096 -1.3016,0.87481 -2.05335,0.58633 -0.75176,-0.28847 -1.70688,0.0257 -2.12249,0.69818 -0.51505,0.83338 -0.33886,0.96509 0.55336,0.41367 0.8478,-0.52397 1.06713,-0.41763 0.62248,0.30182 -0.37759,0.61096 -1.3016,0.87481 -2.05335,0.58633 -0.75176,-0.28847 -1.70688,0.0257 -2.12249,0.69818 -0.51505,0.83338 -0.33886,0.96509 0.55336,0.41367 0.8478,-0.52397 1.06713,-0.41763 0.62248,0.30182 -0.37759,0.61096 -1.3016,0.87481 -2.05335,0.58633 -0.75176,-0.28847 -1.70688,0.0257 -2.12249,0.69818 -0.51505,0.83338 -0.33886,0.96509 0.55336,0.41367 0.8478,-0.52397 1.06713,-0.41763 0.62248,0.30182 -0.37759,0.61096 -1.23462,0.90499 -1.90451,0.65341 -0.66988,-0.25159 -2.36422,0.55556 -3.76519,1.79367 -1.40097,1.2381 -1.96347,1.8585 -1.25,1.37866 0.71347,-0.47985 1.29722,-0.60123 1.29722,-0.26975 0,0.33148 -5.5125,4.29023 -12.25,8.79722 -6.7375,4.50699 -11.575,7.36228 -10.75,6.3451 1.45459,-1.79343 1.41675,-1.79524 -1.25,-0.0598 -2.59884,1.69129 -4.0555,3.48452 -1.59549,1.96415 0.6991,-0.43207 0.8837,-0.27535 0.46797,0.39731 -0.37759,0.61096 -1.3016,0.87481 -2.05335,0.58633 -0.75176,-0.28847 -1.70688,0.0257 -2.12249,0.69818 -0.51505,0.83338 -0.33886,0.96509 0.55336,0.41367 0.8478,-0.52397 1.06713,-0.41763 0.62248,0.30182 -0.37759,0.61096 -1.3016,0.87481 -2.05335,0.58633 -0.75176,-0.28847 -1.70688,0.0257 -2.12249,0.69818 -0.51505,0.83338 -0.33886,0.96509 0.55336,0.41367 0.8478,-0.52397 1.06713,-0.41763 0.62248,0.30182 -0.37759,0.61096 -1.3016,0.87481 -2.05335,0.58633 -0.75176,-0.28847 -1.70688,0.0257 -2.12249,0.69818 -0.51505,0.83338 -0.33886,0.96509 0.55336,0.41367 0.8478,-0.52397 1.06713,-0.41763 0.62248,0.30182 -0.37759,0.61096 -1.23462,0.90499 -1.90451,0.65341 -0.66988,-0.25159 -2.36422,0.55556 -3.76519,1.79367 -1.40097,1.2381 -1.96347,1.8585 -1.25,1.37866 0.71347,-0.47985 1.29722,-0.60123 1.29722,-0.26975 0,0.33148 -5.5125,4.29023 -12.25,8.79722 -6.7375,4.50699 -11.575,7.36228 -10.75,6.3451 1.45459,-1.79343 1.41675,-1.79524 -1.25,-0.0598 -2.59884,1.69129 -4.0555,3.48452 -1.59549,1.96415 0.6991,-0.43207 0.8837,-0.27535 0.46797,0.39731 -0.37759,0.61096 -1.3016,0.87481 -2.05335,0.58633 -0.75176,-0.28847 -1.70688,0.0257 -2.12249,0.69818 -0.51505,0.83338 -0.33886,0.96509 0.55336,0.41367 0.8478,-0.52397 1.06713,-0.41763 0.62248,0.30182 -0.37759,0.61096 -1.3016,0.87481 -2.05335,0.58633 -0.75176,-0.28847 -1.70688,0.0257 -2.12249,0.69818 -0.51505,0.83338 -0.33886,0.96509 0.55336,0.41367 0.8478,-0.52397 1.06713,-0.41763 0.62248,0.30182 -0.37759,0.61096 -1.3016,0.87481 -2.05335,0.58633 -0.75176,-0.28847 -1.70688,0.0257 -2.12249,0.69818 -0.51505,0.83338 -0.33886,0.96509 0.55336,0.41367 0.8478,-0.52397 1.06713,-0.41763 0.62248,0.30182 -0.37759,0.61096 -1.23462,0.90499 -1.90451,0.65341 -0.66988,-0.25159 -2.36422,0.55556 -3.76519,1.79367 -1.40097,1.2381 -1.96347,1.8585 -1.25,1.37866 0.71347,-0.47985 1.29722,-0.60123 1.29722,-0.26975 0,0.33148 -5.5125,4.29023 -12.25,8.79722 -6.7375,4.50699 -11.575,7.36228 -10.75,6.3451 1.45459,-1.79343 1.41675,-1.79524 -1.25,-0.0598 -2.59884,1.69129 -4.0555,3.48452 -1.59549,1.96415 0.6991,-0.43207 0.8837,-0.27535 0.46797,0.39731 -0.37759,0.61096 -1.3016,0.87481 -2.05335,0.58633 -0.75176,-0.28847 -1.70688,0.0257 -2.12249,0.69818 -0.51505,0.83338 -0.33886,0.96509 0.55336,0.41367 0.8478,-0.52397 1.06713,-0.41763 0.62248,0.30182 -0.37759,0.61096 -1.3016,0.87481 -2.05335,0.58633 -0.75176,-0.28847 -1.70688,0.0257 -2.12249,0.69818 -0.51505,0.83338 -0.33886,0.96509 0.55336,0.41367 0.8478,-0.52397 1.06713,-0.41763 0.62248,0.30182 -0.37759,0.61096 -1.3016,0.87481 -2.05335,0.58633 -0.75176,-0.28847 -1.70688,0.0257 -2.12249,0.69818 -0.51505,0.83338 -0.33886,0.96509 0.55336,0.41367 0.8478,-0.52397 1.06713,-0.41763 0.62248,0.30182 -0.37759,0.61096 -1.23462,0.90499 -1.90451,0.65341 -0.66988,-0.25159 -2.36422,0.55556 -3.76519,1.79367 -1.40097,1.2381 -1.96347,1.8585 -1.25,1.37866 0.71347,-0.47985 1.29722,-0.60123 1.29722,-0.26975 0,0.33148 -5.5125,4.29023 -12.25,8.79722 -6.7375,4.50699 -11.575,7.36228 -10.75,6.3451 1.45459,-1.79343 1.41675,-1.79524 -1.25,-0.0598 -2.59884,1.69129 -4.0555,3.48452 -1.59549,1.96415 0.6991,-0.43207 0.8837,-0.27535 0.46797,0.39731 -0.37759,0.61096 -1.3016,0.87481 -2.05335,0.58633 -0.75176,-0.28847 -1.70688,0.0257 -2.12249,0.69818 -0.51505,0.83338 -0.33886,0.96509 0.55336,0.41367 0.8478,-0.52397 1.06713,-0.41763 0.62248,0.30182 -0.37759,0.61096 -1.3016,0.87481 -2.05335,0.58633 -0.75176,-0.28847 -1.70688,0.0257 -2.12249,0.69818 -0.51505,0.83338 -0.33886,0.96509 0.55336,0.41367 0.8478,-0.52397 1.06713,-0.41763 0.62248,0.30182 -0.37759,0.61096 -1.3016,0.87481 -2.05335,0.58633 -0.75176,-0.28847 -1.70688,0.0257 -2.12249,0.69818 -0.51505,0.83338 -0.33886,0.96509 0.55336,0.41367 0.8478,-0.52397 1.06713,-0.41763 0.62248,0.30182 -0.37759,0.61096 -1.23462,0.90499 -1.90451,0.65341 -0.66988,-0.25159 -2.36422,0.55556 -3.76519,1.79367 -1.40097,1.2381 -1.96347,1.8585 -1.25,1.37866 0.71347,-0.47985 1.29722,-0.60123 1.29722,-0.26975 0,0.33148 -5.5125,4.29023 -12.25,8.79722 -6.7375,4.50699 -11.575,7.36228 -10.75,6.3451 1.45459,-1.79343 1.41675,-1.79524 -1.25,-0.0598 -2.59884,1.69129 -4.0555,3.48452 -1.59549,1.96415 0.6991,-0.43207 0.8837,-0.27535 0.46797,0.39731 -0.37759,0.61096 -1.3016,0.87481 -2.05335,0.58633 -0.75176,-0.28847 -1.70688,0.0257 -2.12249,0.69818 -0.51505,0.83338 -0.33886,0.96509 0.55336,0.41367 0.8478,-0.52397 1.06713,-0.41763 0.62248,0.30182 -0.37759,0.61096 -1.3016,0.87481 -2.05335,0.58633 -0.75176,-0.28847 -1.70688,0.0257 -2.12249,0.69818 -0.51505,0.83338 -0.33886,0.96509 0.55336,0.41367 0.8478,-0.52397 1.06713,-0.41763 0.62248,0.30182 -0.37759,0.61096 -1.3016,0.87481 -2.05335,0.58633 -0.75176,-0.28847 -1.70688,0.0257 -2.12249,0.69818 -0.51505,0.83338 -0.33886,0.96509 0.55336,0.41367 0.8478,-0.52397 1.06713,-0.41763 0.62248,0.30182 -0.37759,0.61096 -1.23462,0.90499 -1.90451,0.65341 -0.66988,-0.25159 -2.36422,0.55556 -3.76519,1.79367 -1.40097,1.2381 -1.96347,1.8585 -1.25,1.37866 0.71347,-0.47985 1.29722,-0.60123 1.29722,-0.26975 0,0.33148 -5.5125,4.29023 -12.25,8.79722 -6.7375,4.50699 -11.575,7.36228 -10.75,6.3451 1.45459,-1.79343 1.41675,-1.79524 -1.25,-0.0598 -2.59884,1.69129 -4.0555,3.48452 -1.59549,1.96415 0.6991,-0.43207 0.8837,-0.27535 0.46797,0.39731 -0.37759,0.61096 -1.3016,0.87481 -2.05335,0.58633 -0.75176,-0.28847 -1.70688,0.0257 -2.12249,0.69818 -0.51505,0.83338 -0.33886,0.96509 0.55336,0.41367 0.8478,-0.52397 1.06713,-0.41763 0.62248,0.30182 -0.37759,0.61096 -1.3016,0.87481 -2.05335,0.58633 -0.75176,-0.28847 -1.70688,0.0257 -2.12249,0.69818 -0.51505,0.83338 -0.33886,0.96509 0.55336,0.41367 0.8478,-0.52397 1.06713,-0.41763 0.62248,0.30182 -0.37759,0.61096 -1.3016,0.87481 -2.05335,0.58633 -0.75176,-0.28847 -1.70688,0.0257 -2.12249,0.69818 -0.51505,0.83338 -0.33886,0.96509 0.55336,0.41367 0.8478,-0.52397 1.06713,-0.41763 0.62248,0.30182 -0.37759,0.61096 -1.23462,0.90499 -1.90451,0.65341 -0.66988,-0.25159 -2.36422,0.55556 -3.76519,1.79367 -1.40097,1.2381 -2.04885,2.0261 -1.43973,1.7511 1.28082,-0.57825 -1.95857,2.09287 -8.19794,6.75982 l -4.35814,3.25982 z M 388,207.62244 c 0,-0.20765 0.7875,-0.99515 1.75,-1.75 1.58606,-1.24387 1.62143,-1.2085 0.37756,0.37756 C 388.82119,207.91575 388,208.44548 388,207.62244 Z m 130.8125,-55.30555 c 0.72187,-0.28887 1.58438,-0.25335 1.91667,0.0789 0.33229,0.33229 -0.25834,0.56864 -1.3125,0.52522 -1.16495,-0.048 -1.4019,-0.28494 -0.60417,-0.60416 z"
         id="path7" />
      <path
         style="fill:#6d0cb1"
         d="M 521,664.36062 C 484.29569,660.44156 452.23864,651.50383 422.95055,637.02376 408.44781,629.85358 393,620.95555 393,619.77206 c 0,-0.65117 0.4496,-0.67686 1.25,-0.0714 2.73321,2.06745 6.22918,0.99353 14.34271,-4.40591 4.62401,-3.07722 8.40729,-6.0524 8.40729,-6.6115 0,-0.55911 0.2855,-0.73106 0.63445,-0.38211 0.69583,0.69583 37.09782,-23.62085 39.11555,-26.12935 0.6875,-0.85471 1.25,-1.23943 1.25,-0.85493 0,0.3845 3.1399,-1.3888 6.97756,-3.94067 4.23549,-2.81641 6.70269,-5.0792 6.27812,-5.75797 -1.39189,-2.22523 -1.02892,-3.37166 0.90718,-2.86536 1.30304,0.34075 1.74589,1.04715 1.33445,2.12858 -0.46338,1.21796 -0.33051,1.33557 0.53686,0.47517 0.86565,-0.85871 3.18359,-0.43839 9.30924,1.68809 50.56873,17.55461 105.19067,11.60078 154.95493,-16.89019 6.96869,-3.98971 25.1275,-16.45699 31.20166,-21.4221 9.0613,-7.40685 27.35051,-26.27961 33.65846,-34.73239 19.71375,-26.41683 32.85283,-59.84863 35.37104,-90 0.34451,-4.125 0.765,-8.85 0.93442,-10.5 0.16942,-1.65 0.38787,-5.7 0.48545,-9 0.14317,-4.84226 0.3585,-5.54803 1.11596,-3.65765 0.5162,1.2883 0.70534,2.7197 0.4203,3.18091 -0.28504,0.4612 0.009,1.16417 0.65257,1.56215 0.68401,0.42275 0.90426,0.29232 0.52973,-0.3137 -0.36368,-0.58843 11.0449,-8.90541 26.36417,-19.21977 16.29715,-10.97276 26.73833,-18.61437 26.33207,-19.27171 -0.3937,-0.63702 -0.21116,-0.8037 0.43966,-0.40147 0.61206,0.37828 5.6755,-2.35006 11.25208,-6.06297 5.57658,-3.71291 9.64533,-6.91538 9.04166,-7.1166 C 814.5489,338.68297 814.72933,337 816.33333,337 c 0.73334,0 1.39021,0.5625 1.45972,1.25 0.0695,0.6875 0.82429,6.2 1.6773,12.25 5.85906,41.55585 0.95126,89.83521 -13.11342,129 -7.5923,21.1417 -25.08698,52.98122 -38.15447,69.43942 -10.41035,13.11159 -27.58649,31.34322 -28.58652,30.34319 C 739.27717,578.94384 739,579.16689 739,579.77828 c 0,1.55254 -6.56098,7.61043 -20.5,18.92806 -8.51632,6.91473 -12.13014,9.33018 -12.86288,8.59745 C 705.2867,606.95337 705,607.12859 705,607.69315 705,608.67294 681.89009,625 680.50327,625 c -0.36671,0 -3.32996,1.56087 -6.58501,3.4686 -3.25504,1.90773 -5.92515,3.14523 -5.93357,2.75 -0.008,-0.39523 -0.3566,-0.1818 -0.77373,0.47429 -1.71206,2.69289 -25.77003,13.36655 -44.21096,19.61483 -26.56082,8.99952 -48.73065,12.73474 -78,13.14163 -11.275,0.15674 -22.075,0.11681 -24,-0.0887 z M 390.5,619 c -0.33992,-0.55 -0.14148,-1 0.44098,-1 0.58246,0 1.05902,0.45 1.05902,1 0,0.55 -0.19844,1 -0.44098,1 -0.24254,0 -0.7191,-0.45 -1.05902,-1 z M 739,381.94098 c 0,-0.58246 0.45,-0.7809 1,-0.44098 0.55,0.33992 1,0.81648 1,1.05902 0,0.24254 -0.45,0.44098 -1,0.44098 -0.55,0 -1,-0.47656 -1,-1.05902 z"
         id="path6" />
      <path
         style="fill:#491ab1"
         d="m 218.07895,479.41667 c 0.048,-1.16495 0.28494,-1.4019 0.60416,-0.60417 0.28887,0.72187 0.25335,1.58438 -0.0789,1.91667 -0.3323,0.33229 -0.56864,-0.25834 -0.52522,-1.3125 z M 218.15789,440 c 0,-1.375 0.22698,-1.9375 0.50439,-1.25 0.27741,0.6875 0.27741,1.8125 0,2.5 -0.27741,0.6875 -0.50439,0.125 -0.50439,-1.25 z m -0.0789,-4.58333 c 0.048,-1.16495 0.28494,-1.4019 0.60416,-0.60417 0.28887,0.72187 0.25335,1.58438 -0.0789,1.91667 -0.3323,0.33229 -0.56864,-0.25834 -0.52522,-1.3125 z M 217.93641,411 c -0.59635,-9.42377 0.55872,-51.71237 1.55668,-56.99202 0.15677,-0.82939 0.57637,-4.91251 0.93245,-9.07361 0.59503,-6.95341 2.55765,-20.40782 5.63879,-38.65574 0.69555,-4.11941 1.63397,-6.96509 2.18463,-6.62477 0.56983,0.35218 0.70219,-0.2324 0.32308,-1.4269 -0.48703,-1.53449 0.27247,-2.80335 3.14286,-5.25061 2.08181,-1.77491 3.15307,-2.87616 2.38059,-2.44722 -0.91426,0.50766 -1.16487,0.39215 -0.71797,-0.33095 0.37759,-0.61096 1.23462,-0.90499 1.90451,-0.65341 0.66988,0.25159 2.36422,-0.55556 3.76519,-1.79367 1.40097,-1.2381 1.96347,-1.8585 1.25,-1.37866 -0.71347,0.47985 -1.29722,0.60241 -1.29722,0.27237 0,-0.33004 4.8375,-3.8396 10.75,-7.79901 5.9125,-3.95942 10.075,-6.36589 9.25,-5.34772 -1.45496,1.79563 -1.41743,1.79747 1.25,0.0616 2.59884,-1.69129 4.0555,-3.48452 1.59549,-1.96415 -0.6991,0.43207 -0.8837,0.27535 -0.46797,-0.39731 0.37759,-0.61096 1.3016,-0.87481 2.05335,-0.58633 0.75176,0.28847 1.70688,-0.0257 2.12249,-0.69818 0.51505,-0.83338 0.33886,-0.96509 -0.55336,-0.41367 -0.8478,0.52397 -1.06713,0.41763 -0.62248,-0.30182 0.37759,-0.61096 1.3016,-0.87481 2.05335,-0.58633 0.75176,0.28847 1.70688,-0.0257 2.12249,-0.69818 0.51505,-0.83338 0.33886,-0.96509 -0.55336,-0.41367 -0.8478,0.52397 -1.06713,0.41763 -0.62248,-0.30182 0.37759,-0.61096 1.3016,-0.87481 2.05335,-0.58633 0.75176,0.28847 1.70688,-0.0257 2.12249,-0.69818 0.51505,-0.83338 0.33886,-0.96509 -0.55336,-0.41367 -0.8478,0.52397 -1.06713,0.41763 -0.62248,-0.30182 0.37759,-0.61096 1.3016,-0.87481 2.05335,-0.58633 0.75176,0.28847 1.70688,-0.0257 2.12249,-0.69818 0.51505,-0.83338 0.33886,-0.96509 -0.55336,-0.41367 -0.8478,0.52397 -1.06713,0.41763 -0.62248,-0.30182 0.37759,-0.61096 1.23462,-0.90499 1.90451,-0.65341 0.66988,0.25159 2.36422,-0.55556 3.76519,-1.79367 1.40097,-1.2381 1.96347,-1.8585 1.25,-1.37866 -0.71347,0.47985 -1.29722,0.60241 -1.29722,0.27237 0,-0.33004 4.8375,-3.8396 10.75,-7.79901 5.9125,-3.95942 10.075,-6.36589 9.25,-5.34772 -1.45496,1.79563 -1.41743,1.79747 1.25,0.0616 2.59884,-1.69129 4.0555,-3.48452 1.59549,-1.96415 -0.6991,0.43207 -0.8837,0.27535 -0.46797,-0.39731 0.37759,-0.61096 1.3016,-0.87481 2.05335,-0.58633 0.75176,0.28847 1.70688,-0.0257 2.12249,-0.69818 0.51505,-0.83338 0.33886,-0.96509 -0.55336,-0.41367 -0.8478,0.52397 -1.06713,0.41763 -0.62248,-0.30182 0.37759,-0.61096 1.3016,-0.87481 2.05335,-0.58633 0.75176,0.28847 1.70688,-0.0257 2.12249,-0.69818 0.51505,-0.83338 0.33886,-0.96509 -0.55336,-0.41367 -0.8478,0.52397 -1.06713,0.41763 -0.62248,-0.30182 0.37759,-0.61096 1.3016,-0.87481 2.05335,-0.58633 0.75176,0.28847 1.70688,-0.0257 2.12249,-0.69818 0.51505,-0.83338 0.33886,-0.96509 -0.55336,-0.41367 -0.8478,0.52397 -1.06713,0.41763 -0.62248,-0.30182 0.37759,-0.61096 1.3016,-0.87481 2.05335,-0.58633 0.75176,0.28847 1.70688,-0.0257 2.12249,-0.69818 0.51505,-0.83338 0.33886,-0.96509 -0.55336,-0.41367 -0.8478,0.52397 -1.06713,0.41763 -0.62248,-0.30182 0.37759,-0.61096 1.23462,-0.90499 1.90451,-0.65341 0.66988,0.25159 2.36422,-0.55556 3.76519,-1.79367 1.40097,-1.2381 1.96347,-1.8585 1.25,-1.37866 -0.71347,0.47985 -1.29722,0.60241 -1.29722,0.27237 0,-0.33004 4.8375,-3.8396 10.75,-7.79901 5.9125,-3.95942 10.075,-6.36589 9.25,-5.34772 -1.45496,1.79563 -1.41743,1.79747 1.25,0.0616 2.59884,-1.69129 4.0555,-3.48452 1.59549,-1.96415 -0.6991,0.43207 -0.8837,0.27535 -0.46797,-0.39731 0.37759,-0.61096 1.3016,-0.87481 2.05335,-0.58633 0.75176,0.28847 1.70688,-0.0257 2.12249,-0.69818 0.51505,-0.83338 0.33886,-0.96509 -0.55336,-0.41367 -0.8478,0.52397 -1.06713,0.41763 -0.62248,-0.30182 0.37759,-0.61096 1.3016,-0.87481 2.05335,-0.58633 0.75176,0.28847 1.70688,-0.0257 2.12249,-0.69818 0.51505,-0.83338 0.33886,-0.96509 -0.55336,-0.41367 -0.8478,0.52397 -1.06713,0.41763 -0.62248,-0.30182 0.37759,-0.61096 1.3016,-0.87481 2.05335,-0.58633 0.75176,0.28847 1.70688,-0.0257 2.12249,-0.69818 0.51505,-0.83338 0.33886,-0.96509 -0.55336,-0.41367 -0.8478,0.52397 -1.06713,0.41763 -0.62248,-0.30182 0.37759,-0.61096 1.3016,-0.87481 2.05335,-0.58633 0.75176,0.28847 1.70688,-0.0257 2.12249,-0.69818 0.51505,-0.83338 0.33886,-0.96509 -0.55336,-0.41367 -0.8478,0.52397 -1.06713,0.41763 -0.62248,-0.30182 0.37759,-0.61096 1.23462,-0.90499 1.90451,-0.65341 0.66988,0.25159 2.36422,-0.55556 3.76519,-1.79367 1.40097,-1.2381 1.96347,-1.8585 1.25,-1.37866 -0.71347,0.47985 -1.29722,0.60241 -1.29722,0.27237 0,-0.33004 4.8375,-3.8396 10.75,-7.79901 5.9125,-3.95942 10.075,-6.36589 9.25,-5.34772 -1.45496,1.79563 -1.41743,1.79747 1.25,0.0616 2.59884,-1.69129 4.0555,-3.48452 1.59549,-1.96415 -0.6991,0.43207 -0.8837,0.27535 -0.46797,-0.39731 0.37759,-0.61096 1.3016,-0.87481 2.05335,-0.58633 0.75176,0.28847 1.70688,-0.0257 2.12249,-0.69818 0.51505,-0.83338 0.33886,-0.96509 -0.55336,-0.41367 -0.8478,0.52397 -1.06713,0.41763 -0.62248,-0.30182 0.37759,-0.61096 1.3016,-0.87481 2.05335,-0.58633 0.75176,0.28847 1.70688,-0.0257 2.12249,-0.69818 0.51505,-0.83338 0.33886,-0.96509 -0.55336,-0.41367 -0.8478,0.52397 -1.06713,0.41763 -0.62248,-0.30182 0.37759,-0.61096 1.3016,-0.87481 2.05335,-0.58633 0.75176,0.28847 1.70688,-0.0257 2.12249,-0.69818 0.51505,-0.83338 0.33886,-0.96509 -0.55336,-0.41367 -0.8478,0.52397 -1.06713,0.41763 -0.62248,-0.30182 0.37759,-0.61096 1.3016,-0.87481 2.05335,-0.58633 0.75176,0.28847 1.70688,-0.0257 2.12249,-0.69818 0.51505,-0.83338 0.33886,-0.96509 -0.55336,-0.41367 -0.8478,0.52397 -1.06713,0.41763 -0.62248,-0.30182 0.37759,-0.61096 1.23462,-0.90499 1.90451,-0.65341 0.66988,0.25159 2.36422,-0.55556 3.76519,-1.79367 1.40097,-1.2381 1.96347,-1.8585 1.25,-1.37866 -0.71347,0.47985 -1.29722,0.60241 -1.29722,0.27237 0,-0.33004 4.8375,-3.8396 10.75,-7.79901 5.9125,-3.95942 10.075,-6.36589 9.25,-5.34772 -1.45496,1.79563 -1.41743,1.79747 1.25,0.0616 2.59884,-1.69129 4.0555,-3.48452 1.59549,-1.96415 -0.6991,0.43207 -0.8837,0.27535 -0.46797,-0.39731 0.37759,-0.61096 1.3016,-0.87481 2.05335,-0.58633 0.75176,0.28847 1.70688,-0.0257 2.12249,-0.69818 0.51505,-0.83338 0.33886,-0.96509 -0.55336,-0.41367 -0.8478,0.52397 -1.06713,0.41763 -0.62248,-0.30182 0.37759,-0.61096 1.3016,-0.87481 2.05335,-0.58633 0.75176,0.28847 1.70688,-0.0257 2.12249,-0.69818 0.51505,-0.83338 0.33886,-0.96509 -0.55336,-0.41367 -0.8478,0.52397 -1.06713,0.41763 -0.62248,-0.30182 0.37759,-0.61096 1.3016,-0.87481 2.05335,-0.58633 0.75176,0.28847 1.70688,-0.0257 2.12249,-0.69818 0.51505,-0.83338 0.33886,-0.96509 -0.55336,-0.41367 -0.8478,0.52397 -1.06713,0.41763 -0.62248,-0.30182 0.37759,-0.61096 1.3016,-0.87481 2.05335,-0.58633 0.75176,0.28847 1.70688,-0.0257 2.12249,-0.69818 0.51505,-0.83338 0.33886,-0.96509 -0.55336,-0.41367 -0.8478,0.52397 -1.06713,0.41763 -0.62248,-0.30182 0.37759,-0.61096 1.23462,-0.90499 1.90451,-0.65341 0.66988,0.25159 2.36422,-0.55556 3.76519,-1.79367 1.40097,-1.2381 1.96347,-1.8585 1.25,-1.37866 -0.71347,0.47985 -1.29722,0.60241 -1.29722,0.27237 0,-0.33004 4.8375,-3.8396 10.75,-7.79901 5.9125,-3.95942 10.075,-6.36589 9.25,-5.34772 -1.45496,1.79563 -1.41743,1.79747 1.25,0.0616 2.59884,-1.69129 4.0555,-3.48452 1.59549,-1.96415 -0.6991,0.43207 -0.8837,0.27535 -0.46797,-0.39731 0.37759,-0.61096 1.3016,-0.87481 2.05335,-0.58633 0.75176,0.28847 1.70688,-0.0257 2.12249,-0.69818 0.51505,-0.83338 0.33886,-0.96509 -0.55336,-0.41367 -0.8478,0.52397 -1.06713,0.41763 -0.62248,-0.30182 0.37759,-0.61096 1.3016,-0.87481 2.05335,-0.58633 0.75176,0.28847 1.70688,-0.0257 2.12249,-0.69818 0.51505,-0.83338 0.33886,-0.96509 -0.55336,-0.41367 -0.8478,0.52397 -1.06713,0.41763 -0.62248,-0.30182 0.37759,-0.61096 1.3016,-0.87481 2.05335,-0.58633 0.75176,0.28847 1.70688,-0.0257 2.12249,-0.69818 0.51505,-0.83338 0.33886,-0.96509 -0.55336,-0.41367 -0.8478,0.52397 -1.06713,0.41763 -0.62248,-0.30182 0.37759,-0.61096 1.3016,-0.87481 2.05335,-0.58633 0.75176,0.28847 1.70688,-0.0257 2.12249,-0.69818 0.51505,-0.83338 0.33886,-0.96509 -0.55336,-0.41367 -0.8478,0.52397 -1.06713,0.41763 -0.62248,-0.30182 0.37759,-0.61096 1.23462,-0.90499 1.90451,-0.65341 0.66988,0.25159 2.36422,-0.55556 3.76519,-1.79367 1.40097,-1.2381 1.96347,-1.8585 1.25,-1.37866 -0.71347,0.47985 -1.29722,0.60241 -1.29722,0.27237 0,-0.33004 4.8375,-3.8396 10.75,-7.79901 5.9125,-3.95942 10.075,-6.36589 9.25,-5.34772 -1.45496,1.79563 -1.41743,1.79747 1.25,0.0616 2.59884,-1.69129 4.0555,-3.48452 1.59549,-1.96415 -0.6991,0.43207 -0.8837,0.27535 -0.46797,-0.39731 0.37759,-0.61096 1.3016,-0.87481 2.05335,-0.58633 0.75176,0.28847 1.70688,-0.0257 2.12249,-0.69818 0.51505,-0.83338 0.33886,-0.96509 -0.55336,-0.41367 -0.8478,0.52397 -1.06713,0.41763 -0.62248,-0.30182 0.37759,-0.61096 1.3016,-0.87481 2.05335,-0.58633 0.75176,0.28847 1.70688,-0.0257 2.12249,-0.69818 0.51505,-0.83338 0.33886,-0.96509 -0.55336,-0.41367 -0.8478,0.52397 -1.06713,0.41763 -0.62248,-0.30182 0.37759,-0.61096 1.3016,-0.87481 2.05335,-0.58633 0.75176,0.28847 1.70688,-0.0257 2.12249,-0.69818 0.51505,-0.83338 0.33886,-0.96509 -0.55336,-0.41367 -0.8478,0.52397 -1.06713,0.41763 -0.62248,-0.30182 0.37759,-0.61096 1.3016,-0.87481 2.05335,-0.58633 0.75176,0.28847 1.70688,-0.0257 2.12249,-0.69818 0.51505,-0.83338 0.33886,-0.96509 -0.55336,-0.41367 -0.8478,0.52397 -1.06713,0.41763 -0.62248,-0.30182 0.37759,-0.61096 1.31979,-0.86783 2.09377,-0.57082 0.79521,0.30515 1.9773,-0.41306 2.71798,-1.65138 0.7209,-1.205262 6.03573,-5.372375 11.81073,-9.260251 5.775,-3.887876 9.825,-6.23582 9,-5.217652 -1.45496,1.795629 -1.41743,1.797478 1.25,0.06156 2.59884,-1.691287 4.0555,-3.484512 1.59549,-1.964144 -0.6991,0.432067 -0.8837,0.275344 -0.46797,-0.39731 0.37759,-0.610959 1.3016,-0.874809 2.05335,-0.586334 0.75176,0.288474 1.70688,-0.02571 2.12249,-0.698183 C 546.06841,80.080293 545.89222,79.948579 545,80.5 c -0.8478,0.523971 -1.06713,0.417629 -0.62248,-0.301818 0.37759,-0.610959 1.3016,-0.874809 2.05335,-0.586334 0.75176,0.288474 1.70688,-0.02571 2.12249,-0.698183 C 549.06841,78.080293 548.89222,77.948579 548,78.5 c -0.8478,0.523971 -1.06713,0.417629 -0.62248,-0.301818 0.37759,-0.610959 1.3016,-0.874809 2.05335,-0.586334 0.75176,0.288474 1.70688,-0.02571 2.12249,-0.698183 C 552.06841,76.080293 551.89222,75.948579 551,76.5 c -0.8478,0.523971 -1.06713,0.417629 -0.62248,-0.301818 0.37759,-0.610959 1.3016,-0.874809 2.05335,-0.586334 0.75176,0.288474 1.70688,-0.02571 2.12249,-0.698183 C 555.06841,74.080293 554.89222,73.948579 554,74.5 c -0.8478,0.523971 -1.06713,0.417629 -0.62248,-0.301818 0.37759,-0.610959 1.31362,-0.870197 2.08007,-0.576084 0.79166,0.30379 2.09484,-0.535584 3.0173,-1.943432 0.89307,-1.363 3.28907,-3.572192 5.32444,-4.909314 8.97189,-5.894027 9.61071,-6.248893 8.75749,-4.864844 -0.64715,1.049766 -0.51109,1.183156 0.53867,0.528121 0.77248,-0.482014 1.85451,-0.978959 2.40451,-1.104323 0.55,-0.125364 2.0125,-0.528002 3.25,-0.894752 1.43557,-0.425449 2.25,-0.241268 2.25,0.508832 0,0.646606 0.3904,0.934369 0.86755,0.639471 2.61885,-1.618539 44.76316,8.936325 69.63245,17.439154 10.96793,3.749944 39.38429,14.750947 40.44761,15.658734 0.24618,0.210176 -0.89169,0.280087 -2.52862,0.155358 -1.63692,-0.124729 -3.59538,0.155876 -4.35212,0.623567 -0.97052,0.599818 -1.1475,0.480812 -0.6007,-0.40393 0.60832,-0.984292 0.31871,-1.009977 -1.34549,-0.119324 C 681.9543,95.559639 681,96.306092 681,96.594201 c 0,0.288108 0.51953,0.202747 1.15451,-0.189693 0.6991,-0.432067 0.8837,-0.275344 0.46797,0.39731 -0.37759,0.610959 -1.3016,0.874809 -2.05335,0.586334 -0.75176,-0.288474 -1.70688,0.02571 -2.12249,0.698183 -0.51505,0.833372 -0.33886,0.965086 0.55336,0.413665 0.8478,-0.523971 1.06713,-0.417629 0.62248,0.301818 -0.37759,0.610959 -1.23462,0.904992 -1.90451,0.653407 -0.66988,-0.251584 -2.36422,0.555565 -3.76519,1.793675 -1.40097,1.2381 -1.96347,1.8585 -1.25,1.37866 0.71347,-0.47985 1.29722,-0.60123 1.29722,-0.26975 0,0.33148 -5.5125,4.29023 -12.25,8.79722 -6.7375,4.50699 -11.575,7.36228 -10.75,6.3451 1.45459,-1.79343 1.41675,-1.79524 -1.25,-0.0598 -2.59884,1.69129 -4.0555,3.48452 -1.59549,1.96415 0.6991,-0.43207 0.8837,-0.27535 0.46797,0.39731 -0.37759,0.61096 -1.3016,0.87481 -2.05335,0.58633 -0.75176,-0.28847 -1.70688,0.0257 -2.12249,0.69818 -0.51505,0.83338 -0.33886,0.96509 0.55336,0.41367 0.8478,-0.52397 1.06713,-0.41763 0.62248,0.30182 -0.37759,0.61096 -1.3016,0.87481 -2.05335,0.58633 -0.75176,-0.28847 -1.70688,0.0257 -2.12249,0.69818 -0.51505,0.83338 -0.33886,0.96509 0.55336,0.41367 0.8478,-0.52397 1.06713,-0.41763 0.62248,0.30182 -0.37759,0.61096 -1.3016,0.87481 -2.05335,0.58633 -0.75176,-0.28847 -1.70688,0.0257 -2.12249,0.69818 -0.51505,0.83338 -0.33886,0.96509 0.55336,0.41367 0.8478,-0.52397 1.06713,-0.41763 0.62248,0.30182 -0.37759,0.61096 -1.23462,0.90499 -1.90451,0.65341 -0.66988,-0.25159 -2.36422,0.55556 -3.76519,1.79367 -1.40097,1.2381 -1.96347,1.8585 -1.25,1.37866 0.71347,-0.47985 1.29722,-0.60123 1.29722,-0.26975 0,0.33148 -5.5125,4.29023 -12.25,8.79722 -6.7375,4.50699 -11.575,7.36228 -10.75,6.3451 1.45459,-1.79343 1.41675,-1.79524 -1.25,-0.0598 -2.59884,1.69129 -4.0555,3.48452 -1.59549,1.96415 0.6991,-0.43207 0.8837,-0.27535 0.46797,0.39731 -0.37759,0.61096 -1.3016,0.87481 -2.05335,0.58633 -0.75176,-0.28847 -1.70688,0.0257 -2.12249,0.69818 -0.51505,0.83338 -0.33886,0.96509 0.55336,0.41367 0.8478,-0.52397 1.06713,-0.41763 0.62248,0.30182 -0.37759,0.61096 -1.3016,0.87481 -2.05335,0.58633 -0.75176,-0.28847 -1.70688,0.0257 -2.12249,0.69818 -0.51505,0.83338 -0.33886,0.96509 0.55336,0.41367 0.8478,-0.52397 1.06713,-0.41763 0.62248,0.30182 -0.37759,0.61096 -1.3016,0.87481 -2.05335,0.58633 -0.75176,-0.28847 -1.70688,0.0257 -2.12249,0.69818 -0.51505,0.83338 -0.33886,0.96509 0.55336,0.41367 0.87268,-0.53934 1.06781,-0.41874 0.58541,0.3618 -0.39798,0.64395 -1.16196,0.89991 -1.69772,0.56879 -0.53577,-0.33113 -2.5017,0.5631 -4.36875,1.98717 -3.35846,2.56162 -3.45519,2.57343 -9.07903,1.10861 -12.3117,-3.2068 -26.85755,-4.66931 -46.2075,-4.64594 -10.59717,0.0128 -19.59717,0.21596 -20,0.45147 -0.40282,0.2355 -3.51327,0.71671 -6.9121,1.06935 -9.34885,0.96996 -29.97209,5.25911 -38.87816,8.08574 -4.35485,1.38216 -8.26773,2.51301 -8.69529,2.51301 -1.5934,0 -21.20108,8.12553 -30.3696,12.58533 -23.59477,11.47709 -51.25088,33.83598 -67.92327,54.91333 -2.1747,2.74926 -4.54439,5.62181 -5.266,6.38343 -2.85404,3.01235 -18.99242,28.17038 -22.94805,35.7736 -11.99977,23.06507 -20.50639,49.26289 -22.76013,70.09431 -0.3719,3.4375 -1.02012,6.25 -1.44048,6.25 -0.42037,0 -0.63187,-1.2064 -0.47002,-2.68089 l 0.29429,-2.68089 -2.1818,2.57368 c -2.52027,2.97293 -18.94002,14.09118 -16.6818,11.29569 1.45613,-1.80257 1.41957,-1.80454 -1.25,-0.0672 -2.59884,1.69129 -4.0555,3.48452 -1.59549,1.96415 0.6991,-0.43207 0.8837,-0.27535 0.46797,0.39731 -0.37759,0.61096 -1.3016,0.87481 -2.05335,0.58633 -0.75176,-0.28847 -1.70688,0.0257 -2.12249,0.69818 -0.51505,0.83338 -0.33886,0.96509 0.55336,0.41367 0.8478,-0.52397 1.06713,-0.41763 0.62248,0.30182 -0.37759,0.61096 -1.3016,0.87481 -2.05335,0.58633 -0.75176,-0.28847 -1.70688,0.0257 -2.12249,0.69818 -0.51505,0.83338 -0.33886,0.96509 0.55336,0.41367 0.8478,-0.52397 1.06713,-0.41763 0.62248,0.30182 -0.37759,0.61096 -1.3016,0.87481 -2.05335,0.58633 -0.75176,-0.28847 -1.70688,0.0257 -2.12249,0.69818 -0.51505,0.83338 -0.33886,0.96509 0.55336,0.41367 0.8478,-0.52397 1.06713,-0.41763 0.62248,0.30182 -0.37759,0.61096 -1.3016,0.87481 -2.05335,0.58633 -0.75176,-0.28847 -1.70688,0.0257 -2.12249,0.69818 -0.51505,0.83338 -0.33886,0.96509 0.55336,0.41367 0.8478,-0.52397 1.06713,-0.41763 0.62248,0.30182 -0.37759,0.61096 -1.31979,0.86783 -2.09377,0.57082 -0.79521,-0.30515 -1.9773,0.41306 -2.71798,1.65138 -0.7209,1.20526 -6.03573,5.37237 -11.81073,9.26025 -5.775,3.88788 -9.825,6.23582 -9,5.21765 1.45496,-1.79563 1.41743,-1.79747 -1.25,-0.0616 -2.59884,1.69129 -4.0555,3.48452 -1.59549,1.96415 0.6991,-0.43207 0.8837,-0.27535 0.46797,0.39731 -0.37759,0.61096 -1.3016,0.87481 -2.05335,0.58633 -0.75176,-0.28847 -1.70688,0.0257 -2.12249,0.69818 -0.51505,0.83338 -0.33886,0.96509 0.55336,0.41367 0.8478,-0.52397 1.06713,-0.41763 0.62248,0.30182 -0.37759,0.61096 -1.3016,0.87481 -2.05335,0.58633 -0.75176,-0.28847 -1.70688,0.0257 -2.12249,0.69818 -0.51505,0.83338 -0.33886,0.96509 0.55336,0.41367 0.8478,-0.52397 1.06713,-0.41763 0.62248,0.30182 -0.37759,0.61096 -1.3016,0.87481 -2.05335,0.58633 -0.75176,-0.28847 -1.70688,0.0257 -2.12249,0.69818 -0.51505,0.83338 -0.33886,0.96509 0.55336,0.41367 0.8478,-0.52397 1.06713,-0.41763 0.62248,0.30182 -0.37759,0.61096 -1.3016,0.87481 -2.05335,0.58633 -0.75176,-0.28847 -1.70688,0.0257 -2.12249,0.69818 -0.51505,0.83338 -0.33886,0.96509 0.55336,0.41367 0.8478,-0.52397 1.06713,-0.41763 0.62248,0.30182 -0.37759,0.61096 -1.31362,0.87019 -2.08007,0.57608 -0.79052,-0.30335 -2.09186,0.53104 -3.00734,1.92824 -2.01643,3.07746 -12.26603,9.97817 -13.59791,9.15502 -0.54269,-0.3354 -0.90412,-0.23887 -0.80318,0.21451 0.10095,0.45338 -0.0773,1.49933 -0.39599,2.32433 -0.31875,0.825 -0.80466,2.175 -1.07981,3 -0.27516,0.825 -0.59995,-0.075 -0.72177,-2 z m 95.22148,-43 c 0,-1.375 0.22698,-1.9375 0.50439,-1.25 0.27741,0.6875 0.27741,1.8125 0,2.5 -0.27741,0.6875 -0.50439,0.125 -0.50439,-1.25 z m -0.41869,-12.8893 c -0.27174,-1.03912 -0.10611,-2.50162 0.36806,-3.25 0.58614,-0.92513 0.86702,-0.32034 0.87743,1.8893 0.0171,3.63839 -0.50165,4.20516 -1.24549,1.3607 z M 593.75,159.31067 c -2.00684,-0.52444 -2.28137,-1.86423 -0.59549,-2.90616 0.7153,-0.44208 0.88306,-0.27432 0.44098,0.44098 -0.4228,0.68411 -0.0783,1.15451 0.84549,1.15451 0.85746,0 1.55902,0.45 1.55902,1 0,0.55 -0.1125,0.9478 -0.25,0.884 -0.1375,-0.0638 -1.0375,-0.3218 -2,-0.57333 z"
         id="path5" />
      <path
         style="fill:#4c108f"
         d="m 129,623.62244 c 0,-0.20765 0.7875,-0.99515 1.75,-1.75 1.58606,-1.24387 1.62143,-1.2085 0.37756,0.37756 C 129.82119,623.91575 129,624.44548 129,623.62244 Z m 265.41266,-3.76375 c -0.30297,-0.49022 -0.96976,-0.63242 -1.48176,-0.31598 C 392.41891,619.85914 392,619.64148 392,619.05902 392,618.47656 391.49979,618 390.88842,618 c -1.14216,0 -17.66995,-11.16155 -22.54595,-15.22575 -10.99629,-9.16551 -19.88403,-17.61613 -26.09247,-24.80916 -3.9875,-4.61987 -7.25,-8.73357 -7.25,-9.14154 0,-0.40798 15.58026,-11.24594 34.6228,-24.08438 l 34.62279,-23.3426 10.64424,10.55171 c 11.34119,11.24261 26.60992,22.18082 42.11017,30.16687 4.675,2.40866 8.65093,4.72091 8.83541,5.13835 0.18448,0.41743 0.74698,0.5046 1.25,0.19371 0.50302,-0.31088 0.91459,-0.0887 0.91459,0.49377 0,0.58246 0.54205,0.94652 1.20455,0.80902 0.6625,-0.1375 1.23189,0.2 1.26531,0.75 0.0334,0.55 0.38128,1.50319 0.77302,2.1182 0.43566,0.68398 -1.99735,2.91997 -6.26532,5.75797 -3.83766,2.55187 -6.97756,4.32517 -6.97756,3.94067 0,-0.3845 -0.5625,2.2e-4 -1.25,0.85493 -2.01773,2.5085 -38.41972,26.82518 -39.11555,26.12935 -0.34895,-0.34895 -0.63445,-0.177 -0.63445,0.38211 0,0.5591 -3.73606,3.50285 -8.30235,6.54166 -7.83057,5.21114 -12.90987,6.85878 -14.28499,4.6338 z M 135,618.62244 c 0,-0.20765 0.7875,-0.99515 1.75,-1.75 1.58606,-1.24387 1.62143,-1.2085 0.37756,0.37756 C 135.82119,618.91575 135,619.44548 135,618.62244 Z m 19,-17 c 0,-0.20765 0.7875,-0.99515 1.75,-1.75 1.58606,-1.24387 1.62143,-1.2085 0.37756,0.37756 C 154.82119,601.91575 154,602.44548 154,601.62244 Z m 9,-9 c 0,-0.20765 0.7875,-0.99515 1.75,-1.75 1.58606,-1.24387 1.62143,-1.2085 0.37756,0.37756 C 163.82119,592.91575 163,593.44548 163,592.62244 Z m 52.62036,-88.81719 c 0.29281,-0.47378 0.68098,-2.08628 0.86259,-3.58333 2.19197,-18.06908 2.63683,-28.88528 2.34607,-57.04195 -0.25095,-24.30151 -0.0345,-32.21794 0.9123,-33.36287 0.68273,-0.82561 0.92145,-1.821 0.53048,-2.21196 -0.39096,-0.39097 0.0174,-0.43138 0.90753,-0.0898 0.8901,0.34157 1.95842,0.0708 2.37403,-0.60165 0.51505,-0.83338 0.33886,-0.96509 -0.55336,-0.41367 -0.8478,0.52397 -1.06713,0.41763 -0.62248,-0.30182 0.37759,-0.61096 1.3016,-0.87481 2.05335,-0.58633 0.75176,0.28847 1.70688,-0.0257 2.12249,-0.69818 0.51505,-0.83338 0.33886,-0.96509 -0.55336,-0.41367 -0.8478,0.52397 -1.06713,0.41763 -0.62248,-0.30182 0.37759,-0.61096 1.3016,-0.87481 2.05335,-0.58633 0.75176,0.28847 1.70688,-0.0257 2.12249,-0.69818 0.51505,-0.83338 0.33886,-0.96509 -0.55336,-0.41367 -0.8478,0.52397 -1.06713,0.41763 -0.62248,-0.30182 0.37759,-0.61096 1.31979,-0.86783 2.09377,-0.57082 0.79521,0.30515 1.9773,-0.41306 2.71798,-1.65138 0.7209,-1.20526 6.03573,-5.37237 11.81073,-9.26025 5.775,-3.88788 9.825,-6.23582 9,-5.21765 -1.45496,1.79563 -1.41743,1.79747 1.25,0.0616 2.59884,-1.69129 4.0555,-3.48452 1.59549,-1.96415 -0.6991,0.43207 -0.8837,0.27535 -0.46797,-0.39731 0.37759,-0.61096 1.3016,-0.87481 2.05335,-0.58633 0.75176,0.28847 1.70688,-0.0257 2.12249,-0.69818 0.51505,-0.83338 0.33886,-0.96509 -0.55336,-0.41367 -0.8478,0.52397 -1.06713,0.41763 -0.62248,-0.30182 0.37759,-0.61096 1.3016,-0.87481 2.05335,-0.58633 0.75176,0.28847 1.70688,-0.0257 2.12249,-0.69818 0.51505,-0.83338 0.33886,-0.96509 -0.55336,-0.41367 -0.8478,0.52397 -1.06713,0.41763 -0.62248,-0.30182 0.37759,-0.61096 1.3016,-0.87481 2.05335,-0.58633 0.75176,0.28847 1.70688,-0.0257 2.12249,-0.69818 0.51505,-0.83338 0.33886,-0.96509 -0.55336,-0.41367 -0.8478,0.52397 -1.06713,0.41763 -0.62248,-0.30182 0.37759,-0.61096 1.3016,-0.87481 2.05335,-0.58633 0.75176,0.28847 1.70688,-0.0257 2.12249,-0.69818 0.51505,-0.83338 0.33886,-0.96509 -0.55336,-0.41367 -0.8478,0.52397 -1.06713,0.41763 -0.62248,-0.30182 0.37759,-0.61096 1.31979,-0.86783 2.09377,-0.57082 0.79521,0.30515 1.9773,-0.41306 2.71798,-1.65138 0.7209,-1.20526 6.03573,-5.37237 11.81073,-9.26025 5.775,-3.88788 9.825,-6.23582 9,-5.21765 -1.45496,1.79563 -1.41743,1.79747 1.25,0.0616 2.59884,-1.69129 4.0555,-3.48452 1.59549,-1.96415 -0.6991,0.43207 -0.8837,0.27535 -0.46797,-0.39731 0.37759,-0.61096 1.3016,-0.87481 2.05335,-0.58633 0.75176,0.28847 1.70688,-0.0257 2.12249,-0.69818 0.51505,-0.83338 0.33886,-0.96509 -0.55336,-0.41367 -0.8478,0.52397 -1.06713,0.41763 -0.62248,-0.30182 0.37759,-0.61096 1.3016,-0.87481 2.05335,-0.58633 0.75176,0.28847 1.70688,-0.0257 2.12249,-0.69818 0.51505,-0.83338 0.33886,-0.96509 -0.55336,-0.41367 -0.8478,0.52397 -1.06713,0.41763 -0.62248,-0.30182 0.37759,-0.61096 1.3016,-0.87481 2.05335,-0.58633 0.75176,0.28847 1.70688,-0.0257 2.12249,-0.69818 0.51505,-0.83338 0.33886,-0.96509 -0.55336,-0.41367 -0.87268,0.53934 -1.06781,0.41874 -0.58541,-0.3618 0.39798,-0.64395 1.21699,-0.86589 1.82002,-0.4932 0.60303,0.37269 2.11624,-0.60137 3.3627,-2.16458 l 2.26629,-2.8422 -0.29429,2.68089 C 312.40746,348.7936 312.6897,350 313.19653,350 c 0.50683,0 0.60362,0.51435 0.21509,1.143 -0.9261,1.49846 -0.60378,13.24032 0.64795,23.60464 2.1669,17.94187 9.38966,38.28502 17.5304,49.37492 2.00715,2.73429 3.40573,5.21507 3.10796,5.51285 -0.29778,0.29777 -1.14199,-0.60484 -1.87603,-2.0058 l -1.33462,-2.54721 -55.49364,37.46399 c -30.5215,20.6052 -55.98813,38.12967 -56.59252,38.94326 -0.60438,0.81359 -1.46358,1.14876 -1.90933,0.74481 -0.44575,-0.40395 -0.55665,-0.022 -0.24646,0.84887 0.33662,0.94502 0.0154,1.58334 -0.79668,1.58334 -0.74837,0 -1.1211,-0.38764 -0.82829,-0.86142 z M 1179.4863,325.5 c 0,-77.55 0.1186,-109.42269 0.2636,-70.82819 0.1449,38.5945 0.145,102.0445 0,141 -0.1449,38.9555 -0.2636,7.37819 -0.2636,-70.17181 z M 368.8125,445.31689 c 0.72187,-0.28887 1.58438,-0.25335 1.91667,0.0789 0.33229,0.33229 -0.25834,0.56864 -1.3125,0.52522 -1.16495,-0.048 -1.4019,-0.28494 -0.60417,-0.60416 z M 741.91667,391.75 c -0.0851,-0.25527 -0.30997,-1.57845 -1.31712,-7.75 -0.31415,-1.925 -0.81839,-5.975 -1.12054,-9 -2.40034,-24.03124 -7.21066,-43.21617 -14.75492,-58.84686 -2.3794,-4.92979 -3.62731,-8.61425 -3.04827,-9 0.53922,-0.35923 16.10844,-10.89064 34.59826,-23.40314 18.48981,-12.5125 34.01918,-22.75 34.5097,-22.75 1.35939,0 9.64051,17.16548 14.16491,29.36165 C 811.25219,307.35362 818.22919,337 815.92459,337 815.41607,337 815,337.49814 815,338.10699 c 0,0.60884 0.675,0.84797 1.5,0.53138 3.37587,-1.29544 0.96222,0.67771 -9.02843,7.38071 -5.79064,3.88509 -11.03517,6.75063 -11.65451,6.36785 -0.66346,-0.41003 -0.84951,-0.24846 -0.45289,0.3933 0.40626,0.65734 -10.03492,8.29895 -26.33207,19.27171 -14.8529,10.00035 -26.75975,18.57972 -26.45967,19.06526 0.30008,0.48554 0.29405,0.8828 -0.0134,0.8828 -0.30746,0 -0.59652,-0.1125 -0.64235,-0.25 z M 1604.232,302 c 0,-1.925 0.2058,-2.7125 0.4573,-1.75 0.2516,0.9625 0.2516,2.5375 0,3.5 -0.2515,0.9625 -0.4573,0.175 -0.4573,-1.75 z m 49.518,-3.7404 c 3.4375,-0.19527 9.0625,-0.19527 12.5,0 3.4375,0.19527 0.625,0.35504 -6.25,0.35504 -6.875,0 -9.6875,-0.15977 -6.25,-0.35504 z M 643,271.62244 c 0,-0.20765 0.7875,-0.99515 1.75,-1.75 1.58606,-1.24387 1.62143,-1.2085 0.37756,0.37756 C 643.82119,271.91575 643,272.44548 643,271.62244 Z M 661,208 c -0.90129,-0.58246 -1.02463,-0.97549 -0.30902,-0.98469 0.65504,-0.008 1.4691,0.43469 1.80902,0.98469 0.7673,1.24153 0.42112,1.24153 -1.5,0 z m -4.87702,-6.80836 c -2.80066,-4.36445 -14.10865,-15.94212 -21.63817,-22.1542 C 628.18324,173.83844 606.30312,162 602.99577,162 602.4481,162 602,161.52344 602,160.94098 c 0,-0.58246 -0.41891,-0.80012 -0.9309,-0.48369 -0.512,0.31644 -1.21809,0.11065 -1.5691,-0.45729 -0.35101,-0.56794 -1.10741,-0.74263 -1.6809,-0.3882 -0.57349,0.35444 -1.37039,0.11424 -1.77088,-0.53378 -0.4005,-0.64801 -1.70018,-1.25143 -2.8882,-1.34092 C 591.97201,157.64761 591,157.45522 591,157.30956 c 0,-0.14566 4.8375,-3.50435 10.75,-7.46376 5.9125,-3.95942 10.075,-6.36589 9.25,-5.34772 -1.45496,1.79563 -1.41743,1.79747 1.25,0.0616 2.59884,-1.69129 4.0555,-3.48452 1.59549,-1.96415 -0.6991,0.43207 -0.8837,0.27535 -0.46797,-0.39731 0.37759,-0.61096 1.3016,-0.87481 2.05335,-0.58633 0.75176,0.28847 1.70688,-0.0257 2.12249,-0.69818 0.51505,-0.83338 0.33886,-0.96509 -0.55336,-0.41367 -0.8478,0.52397 -1.06713,0.41763 -0.62248,-0.30182 0.37759,-0.61096 1.3016,-0.87481 2.05335,-0.58633 0.75176,0.28847 1.70688,-0.0257 2.12249,-0.69818 0.51505,-0.83338 0.33886,-0.96509 -0.55336,-0.41367 -0.8478,0.52397 -1.06713,0.41763 -0.62248,-0.30182 0.37759,-0.61096 1.3016,-0.87481 2.05335,-0.58633 0.75176,0.28847 1.70688,-0.0257 2.12249,-0.69818 0.51505,-0.83338 0.33886,-0.96509 -0.55336,-0.41367 -0.8478,0.52397 -1.06713,0.41763 -0.62248,-0.30182 0.37759,-0.61096 1.3016,-0.87481 2.05335,-0.58633 0.75176,0.28847 1.70688,-0.0257 2.12249,-0.69818 0.51505,-0.83338 0.33886,-0.96509 -0.55336,-0.41367 -0.8478,0.52397 -1.06713,0.41763 -0.62248,-0.30182 0.37759,-0.61096 1.23462,-0.90499 1.90451,-0.65341 0.66988,0.25159 2.36422,-0.55556 3.76519,-1.79367 1.40097,-1.2381 1.96347,-1.8585 1.25,-1.37866 -0.71347,0.47985 -1.29722,0.60241 -1.29722,0.27237 0,-0.33004 4.8375,-3.8396 10.75,-7.79901 5.9125,-3.95942 10.075,-6.36589 9.25,-5.34772 -1.45496,1.79563 -1.41743,1.79747 1.25,0.0616 2.59884,-1.69129 4.0555,-3.48452 1.59549,-1.96415 -0.6991,0.43207 -0.8837,0.27535 -0.46797,-0.39731 0.37759,-0.61096 1.3016,-0.87481 2.05335,-0.58633 0.75176,0.28847 1.70688,-0.0257 2.12249,-0.69818 0.51505,-0.83338 0.33886,-0.96509 -0.55336,-0.41367 -0.8478,0.52397 -1.06713,0.41763 -0.62248,-0.30182 0.37759,-0.61096 1.3016,-0.87481 2.05335,-0.58633 0.75176,0.28847 1.70688,-0.0257 2.12249,-0.69818 0.51505,-0.83338 0.33886,-0.96509 -0.55336,-0.41367 -0.8478,0.52397 -1.06713,0.41763 -0.62248,-0.30182 0.37759,-0.61096 1.3016,-0.87481 2.05335,-0.58633 0.75176,0.28847 1.70688,-0.0257 2.12249,-0.69818 0.51505,-0.83338 0.33886,-0.96509 -0.55336,-0.41367 -0.8478,0.52397 -1.06713,0.41763 -0.62248,-0.30182 0.37759,-0.61096 1.3016,-0.87481 2.05335,-0.58633 0.75176,0.28847 1.70688,-0.0257 2.12249,-0.69818 0.51505,-0.83338 0.33886,-0.96509 -0.55336,-0.41367 -0.8478,0.52397 -1.06713,0.41763 -0.62248,-0.30182 0.37759,-0.61096 1.23462,-0.90499 1.90451,-0.65341 0.66988,0.25159 2.36422,-0.55556 3.76519,-1.79367 1.40097,-1.2381 1.96347,-1.8585 1.25,-1.37866 -0.71347,0.47985 -1.29722,0.60912 -1.29722,0.28727 0,-0.32186 2.8125,-2.49921 6.25,-4.838574 5.08263,-3.458942 7.01305,-4.220578 10.33533,-4.077736 2.69266,0.115771 12.74908,3.89741 29.5,11.09325 26.97226,11.58671 39.78862,16.14024 54.998,19.54029 3.08462,0.68956 3.46565,3.10394 0.5,3.16821 -1.14583,0.0248 -16.25833,9.65149 -33.58333,21.39258 -17.325,11.74109 -42.46316,28.7629 -55.86258,37.82625 -17.41581,11.78003 -23.97406,16.72498 -23,17.34211 0.83153,0.52683 0.91604,0.86925 0.21683,0.8786 -0.63017,0.008 -2.53424,-2.14845 -4.23127,-4.79305 z M 786,128 c -0.90129,-0.58246 -1.02463,-0.97549 -0.30902,-0.98469 0.65504,-0.008 1.4691,0.43469 1.80902,0.98469 0.7673,1.24153 0.42112,1.24153 -1.5,0 z m -5.25,-0.66228 c 0.6875,-0.27741 1.8125,-0.27741 2.5,0 0.6875,0.27741 0.125,0.50439 -1.25,0.50439 -1.375,0 -1.9375,-0.22698 -1.25,-0.50439 z m 33.0625,-0.0208 c 0.72187,-0.28887 1.58438,-0.25335 1.91667,0.0789 0.33229,0.3323 -0.25834,0.56864 -1.3125,0.52522 -1.16495,-0.048 -1.4019,-0.28494 -0.60417,-0.60416 z m 8,-1 c 0.72187,-0.28887 1.58438,-0.25335 1.91667,0.0789 0.33229,0.3323 -0.25834,0.56864 -1.3125,0.52522 -1.16495,-0.048 -1.4019,-0.28494 -0.60417,-0.60416 z"
         id="path4" />
      <path
         style="fill:#430c73"
         d="m 18.865491,722.11696 c -3.610234,-5.28933 -7.334705,-10.81793 -8.276602,-12.28579 L 8.8763476,707.16234 52.543304,677.92526 C 102.55361,644.44102 122.4589,629.96323 142.5,612.49668 c 21.05912,-18.35379 37.5111,-36.6272 52.21596,-57.9969 2.94126,-4.27434 12.46702,-22.99101 15.01379,-29.49978 2.12749,-5.43723 4.28249,-12.62119 4.94957,-16.5 0.60944,-3.5437 1.28178,-4.64208 2.41339,-3.9427 0.73208,0.45245 0.69303,-0.1186 -0.11535,-1.68662 -0.99486,-1.92976 -0.98269,-2.14467 0.0654,-1.15548 1.01433,0.9573 1.51783,0.90534 2.3724,-0.2448 0.59664,-0.80301 26.0547,-18.3173 56.57347,-38.92064 49.22903,-33.23474 55.60275,-37.25768 56.5,-35.66151 1.49328,2.65648 10.76928,10.59257 15.8856,13.59094 12.2061,7.15325 29.9681,6.33162 46.94883,-2.17173 2.6527,-1.32838 59.5777,-39.34827 126.5,-84.48864 85.23937,-57.49559 123.56417,-83.90692 127.97913,-88.19611 15.00049,-14.5732 20.01721,-29.37494 15.64579,-46.16261 -0.85359,-3.27806 -2.17288,-7.20518 -2.93175,-8.72694 -0.95,-1.905 -1.01168,-2.58275 -0.19803,-2.17584 0.64997,0.32505 0.30825,-0.11738 -0.75937,-0.98316 -1.06762,-0.86579 -1.51762,-1.58105 -1,-1.58947 0.51762,-0.008 0.32797,-0.40379 -0.42145,-0.8786 -0.97406,-0.61713 5.58419,-5.56208 23,-17.34211 13.39942,-9.06335 38.53758,-26.08516 55.86258,-37.82625 17.325,-11.74109 32.475,-21.36775 33.66667,-21.39258 1.19166,-0.0248 2.09166,-0.49515 2,-1.04515 -0.0917,-0.55 0.50833,-0.84792 1.33333,-0.66204 7.35554,1.65726 32.29269,1.76461 44,0.18942 13.43376,-1.80749 40.87803,-9.01693 49.5,-13.00334 1.1,-0.50859 6.05,-2.56636 11,-4.57282 15.83281,-6.41776 40.78253,-19.726217 64.5,-34.405029 9.14137,-5.657619 63.54824,-42.216489 83.92434,-56.393221 l 12.4244,-8.644276 8.1863,12.245653 c 4.5025,6.735109 7.9115,12.521955 7.5757,12.859657 C 1056.7748,35.451706 829.925,188.628 553,375.50578 276.075,562.38355 44.084149,718.98488 37.464776,723.50874 l -12.035223,8.22519 z M 1066.8125,572.31689 c 0.7219,-0.28887 1.5844,-0.25335 1.9167,0.0789 0.3323,0.33229 -0.2584,0.56864 -1.3125,0.52522 -1.165,-0.048 -1.4019,-0.28494 -0.6042,-0.60416 z m 1438,0 c 0.7219,-0.28887 1.5844,-0.25335 1.9167,0.0789 0.3323,0.33229 -0.2584,0.56864 -1.3125,0.52522 -1.165,-0.048 -1.4019,-0.28494 -0.6042,-0.60416 z m 38,0 c 0.7219,-0.28887 1.5844,-0.25335 1.9167,0.0789 0.3323,0.33229 -0.2584,0.56864 -1.3125,0.52522 -1.165,-0.048 -1.4019,-0.28494 -0.6042,-0.60416 z m 211,0 c 0.7219,-0.28887 1.5844,-0.25335 1.9167,0.0789 0.3323,0.33229 -0.2584,0.56864 -1.3125,0.52522 -1.165,-0.048 -1.4019,-0.28494 -0.6042,-0.60416 z m -1709.0446,-6.04162 c 1.7974,-0.22256 4.4974,-0.21797 6,0.0102 1.5027,0.22818 0.032,0.41027 -3.2679,0.40466 -3.3,-0.006 -4.5294,-0.1923 -2.7321,-0.41486 z M 1820.2522,563.5 c 0.011,-2.2 0.2159,-2.98225 0.4551,-1.73834 0.2392,1.24391 0.2301,3.04391 -0.02,4 -0.2503,0.95609 -0.446,-0.0617 -0.4349,-2.26166 z m 351,0 c 0.011,-2.2 0.2159,-2.98225 0.4551,-1.73834 0.2392,1.24391 0.2301,3.04391 -0.02,4 -0.2503,0.95609 -0.446,-0.0617 -0.4349,-2.26166 z m 594.4978,2.79427 c 1.2375,-0.23836 3.2625,-0.23836 4.5,0 1.2375,0.23835 0.225,0.43337 -2.25,0.43337 -2.475,0 -3.4875,-0.19502 -2.25,-0.43337 z m -1734.9375,-0.97738 c 0.7219,-0.28887 1.5844,-0.25335 1.9167,0.0789 0.3323,0.33229 -0.2584,0.56864 -1.3125,0.52522 -1.165,-0.048 -1.4019,-0.28494 -0.6042,-0.60416 z M 1455.8724,558.25 c -1.2438,-1.58606 -1.2085,-1.62143 0.3776,-0.37756 0.9625,0.75485 1.75,1.54235 1.75,1.75 0,0.82304 -0.8212,0.29331 -2.1276,-1.37244 z m 901,-3 c -1.2438,-1.58606 -1.2085,-1.62143 0.3776,-0.37756 0.9625,0.75485 1.75,1.54235 1.75,1.75 0,0.82304 -0.8212,0.29331 -2.1276,-1.37244 z m -1118,-7 c -1.2438,-1.58606 -1.2085,-1.62143 0.3776,-0.37756 0.9625,0.75485 1.75,1.54235 1.75,1.75 0,0.82304 -0.8212,0.29331 -2.1276,-1.37244 z m 208,0 c -1.2438,-1.58606 -1.2085,-1.62143 0.3776,-0.37756 0.9625,0.75485 1.75,1.54235 1.75,1.75 0,0.82304 -0.8212,0.29331 -2.1276,-1.37244 z m 902,-2 c -1.2438,-1.58606 -1.2085,-1.62143 0.3776,-0.37756 0.9625,0.75485 1.75,1.54235 1.75,1.75 0,0.82304 -0.8212,0.29331 -2.1276,-1.37244 z m -1007.1107,-0.95726 c 1.2439,-0.23919 3.0439,-0.23011 4,0.0202 0.956,0.25029 -0.062,0.446 -2.2617,0.4349 -2.2,-0.0111 -2.9823,-0.21589 -1.7383,-0.45508 z m 916.5073,-1.98573 c 0.973,-0.25354 2.323,-0.23687 3,0.0371 0.6771,0.27393 -0.119,0.48137 -1.769,0.46099 -1.65,-0.0204 -2.2039,-0.2445 -1.231,-0.49804 z M 2479.4812,440.5 c -1e-4,-55.55 0.1208,-78.42181 0.2685,-50.82624 0.1478,27.59556 0.1479,73.04556 1e-4,101 -0.1477,27.95443 -0.2686,5.37624 -0.2686,-50.17376 z m -1041.6088,97.75 c -1.2438,-1.58606 -1.2085,-1.62143 0.3776,-0.37756 0.9625,0.75485 1.75,1.54235 1.75,1.75 0,0.82304 -0.8212,0.29331 -2.1276,-1.37244 z m -131,-5 c -1.2438,-1.58606 -1.2085,-1.62143 0.3776,-0.37756 0.9625,0.75485 1.75,1.54235 1.75,1.75 0,0.82304 -0.8212,0.29331 -2.1276,-1.37244 z m 123,-4 c -1.2438,-1.58606 -1.2085,-1.62143 0.3776,-0.37756 0.9625,0.75485 1.75,1.54235 1.75,1.75 0,0.82304 -0.8212,0.29331 -2.1276,-1.37244 z M 2406.4893,348 c 0,-100.375 0.1173,-141.4375 0.2606,-91.25 0.1434,50.1875 0.1434,132.3125 0,182.5 -0.1433,50.1875 -0.2606,9.125 -0.2606,-91.25 z m -74.6169,179.25 c -1.2438,-1.58606 -1.2085,-1.62143 0.3776,-0.37756 1.6657,1.30637 2.1955,2.12756 1.3724,2.12756 -0.2076,0 -0.9951,-0.7875 -1.75,-1.75 z M 1399.5,522 c 0.9955,-1.1 2.035,-2 2.31,-2 0.275,0 -0.3145,0.9 -1.31,2 -0.9955,1.1 -2.035,2 -2.31,2 -0.275,0 0.3145,-0.9 1.31,-2 z m 21.3724,-2.75 c -1.2438,-1.58606 -1.2085,-1.62143 0.3776,-0.37756 0.9625,0.75485 1.75,1.54235 1.75,1.75 0,0.82304 -0.8212,0.29331 -2.1276,-1.37244 z m 884.59,-48.75 c 2e-4,-26.4 0.1293,-37.05639 0.2869,-23.68087 0.1576,13.37553 0.1575,34.97553 -3e-4,48 -0.1579,13.02448 -0.2868,2.08087 -0.2866,-24.31913 z M 2147.1579,514 c 0,-1.375 0.227,-1.9375 0.5044,-1.25 0.2774,0.6875 0.2774,1.8125 0,2.5 -0.2774,0.6875 -0.5044,0.125 -0.5044,-1.25 z M 1220.2452,399.25 1220,298 l 37.25,0.23729 37.25,0.2373 -36.7452,0.27502 -36.7452,0.27502 -0.2597,100.73769 -0.2596,100.73768 z m 1663.007,94.25 c 0.011,-2.2 0.2159,-2.98225 0.4551,-1.73834 0.2392,1.24391 0.2301,3.04391 -0.02,4 -0.2503,0.95609 -0.446,-0.0617 -0.4349,-2.26166 z m -1781.7653,-161 c 10e-5,-81.4 0.1184,-114.55221 0.263,-73.67158 0.1446,40.88064 0.1446,107.48064 0,148 -0.1447,40.51937 -0.263,7.07158 -0.263,-74.32842 z M 2163,464.62244 c 0,-0.20765 0.7875,-0.99515 1.75,-1.75 1.5861,-1.24387 1.6214,-1.2085 0.3776,0.37756 -1.3064,1.66575 -2.1276,2.19548 -2.1276,1.37244 z m 435.0789,-4.20577 c 0.048,-1.16495 0.285,-1.4019 0.6042,-0.60417 0.2889,0.72187 0.2534,1.58438 -0.079,1.91667 -0.3323,0.33229 -0.5687,-0.25834 -0.5253,-1.3125 z M 2168,459.62244 c 0,-0.20765 0.7875,-0.99515 1.75,-1.75 1.5861,-1.24387 1.6214,-1.2085 0.3776,0.37756 -1.3064,1.66575 -2.1276,2.19548 -2.1276,1.37244 z M 2232.5,454 c 0.9955,-1.1 2.035,-2 2.31,-2 0.275,0 -0.3145,0.9 -1.31,2 -0.9955,1.1 -2.035,2 -2.31,2 -0.275,0 0.3145,-0.9 1.31,-2 z m 442.8605,-30 c 0,-5.225 0.1685,-7.3625 0.3745,-4.75 0.206,2.6125 0.206,6.8875 0,9.5 -0.206,2.6125 -0.3745,0.475 -0.3745,-4.75 z m -77.2026,-2 c 0,-1.375 0.227,-1.9375 0.5044,-1.25 0.2774,0.6875 0.2774,1.8125 0,2.5 -0.2774,0.6875 -0.5044,0.125 -0.5044,-1.25 z m 101.7664,-2.75 -2.4243,-2.75 2.75,2.42431 c 1.5125,1.33338 2.75,2.57088 2.75,2.75 0,0.78428 -0.8098,0.14598 -3.0757,-2.42431 z m -402.1118,-1.93311 c 0.7219,-0.28887 1.5844,-0.25335 1.9167,0.0789 0.3323,0.33229 -0.2584,0.56864 -1.3125,0.52522 -1.165,-0.048 -1.4019,-0.28494 -0.6042,-0.60416 z M 2305.4092,400.5 c 0,-9.35 0.1491,-13.3096 0.334,-8.7991 0.1849,4.51049 0.1858,12.16049 0,17 -0.1837,4.8395 -0.335,1.1491 -0.3361,-8.2009 z m 72.7857,-15 c 0.02,-1.65 0.2445,-2.20394 0.4981,-1.23097 0.2535,0.97297 0.2369,2.32297 -0.037,3 -0.2739,0.67703 -0.4813,-0.11903 -0.461,-1.76903 z m -74.116,-19.08333 c 0.048,-1.16495 0.285,-1.4019 0.6042,-0.60417 0.2889,0.72187 0.2534,1.58438 -0.079,1.91667 -0.3323,0.33229 -0.5687,-0.25834 -0.5253,-1.3125 z m 433,-21 c 0.048,-1.16495 0.285,-1.4019 0.6042,-0.60417 0.2889,0.72187 0.2534,1.58438 -0.079,1.91667 -0.3323,0.33229 -0.5687,-0.25834 -0.5253,-1.3125 z M 2479.4771,247.5 c 0,-45.1 0.1227,-63.40389 0.2727,-40.67531 0.1499,22.72858 0.1498,59.62858 -2e-4,82 -0.15,22.37142 -0.2726,3.77531 -0.2725,-41.32469 z m 159.4691,73.75 -3.4462,-3.75 3.75,3.44617 c 3.4904,3.20761 4.2098,4.05383 3.4462,4.05383 -0.1671,0 -1.8546,-1.6875 -3.75,-3.75 z m -355.0219,-9 -2.4243,-2.75 2.75,2.42431 c 1.5125,1.33338 2.75,2.57088 2.75,2.75 0,0.78428 -0.8098,0.14598 -3.0757,-2.42431 z m 242.3447,2.05701 c 0.973,-0.25354 2.323,-0.23687 3,0.0371 0.6771,0.27393 -0.119,0.48137 -1.769,0.46099 -1.65,-0.0204 -2.2039,-0.2445 -1.231,-0.49804 z M 1748,299 l -76.5,-0.51875 76.191,-0.24063 c 49.9764,-0.15783 76.4036,0.10344 76.809,0.75938 0.3399,0.55 0.479,0.89172 0.309,0.75938 C 1824.6391,299.62703 1790.075,299.28532 1748,299 Z m 496.269,0.30701 c 0.973,-0.25354 2.323,-0.23687 3,0.0371 0.6771,0.27393 -0.119,0.48137 -1.769,0.46099 -1.65,-0.0204 -2.2039,-0.2445 -1.231,-0.49804 z m -823.9536,-1.05587 c 10.3485,-0.16266 26.9985,-0.16241 37,5.6e-4 10.0015,0.16297 1.5346,0.29606 -18.8154,0.29575 -20.35,-3.1e-4 -28.5331,-0.13365 -18.1846,-0.29631 z m 1360.4346,0.0866 c 0.6875,-0.27741 1.8125,-0.27741 2.5,0 0.6875,0.27741 0.125,0.50439 -1.25,0.50439 -1.375,0 -1.9375,-0.22698 -1.25,-0.50439 z m -533.9375,-6.02083 c 0.7219,-0.28887 1.5844,-0.25335 1.9167,0.0789 0.3323,0.33229 -0.2584,0.56864 -1.3125,0.52522 -1.165,-0.048 -1.4019,-0.28494 -0.6042,-0.60416 z m 31.9375,0.0208 c 0.6875,-0.27741 1.8125,-0.27741 2.5,0 0.6875,0.27741 0.125,0.50439 -1.25,0.50439 -1.375,0 -1.9375,-0.22698 -1.25,-0.50439 z m 486.0625,-0.0208 c 0.7219,-0.28887 1.5844,-0.25335 1.9167,0.0789 0.3323,0.33229 -0.2584,0.56864 -1.3125,0.52522 -1.165,-0.048 -1.4019,-0.28494 -0.6042,-0.60416 z m -200.5488,-1.03447 c 1.5201,-0.22986 3.7701,-0.22371 5,0.0136 1.23,0.23736 -0.014,0.42542 -2.7637,0.41792 -2.75,-0.008 -3.7563,-0.20172 -2.2363,-0.43157 z m 216.9863,-0.0175 c 2.6125,-0.206 6.8875,-0.206 9.5,0 2.6125,0.206 0.475,0.37454 -4.75,0.37454 -5.225,0 -7.3625,-0.16854 -4.75,-0.37454 z"
         id="path3" />
      <path
         style="fill:#ffffff"
         d="m 1024.5,571.39766 c -11.2241,-1.71493 -23.3108,-5.40302 -34.21165,-10.43921 C 981.30411,556.80772 962,544.64383 962,543.13342 c 0,-0.50152 0.79922,-1.89885 1.77605,-3.10518 l 1.77606,-2.19334 9.47394,6.45284 c 20.15134,13.72536 36.45295,19.48938 61.53055,21.75632 33.6292,3.03998 49.8962,-8.15517 58.9122,-40.54406 5.9998,-21.55356 5.8694,-17.67353 6.2611,-186.25 L 1102.0884,185 H 1140.5442 1179 v 145.36901 c 0,157.12764 0.1249,153.16038 -5.3237,169.13099 -4.9676,14.561 -12.3242,26.29243 -23.2785,37.12207 -23.9623,23.68948 -60.0104,36.51211 -101.8978,36.24599 -8.25,-0.0524 -19.05,-0.71409 -24,-1.4704 z m 261,0.49319 c -25.42,-3.66583 -46.0593,-18.04268 -56.5492,-39.39085 -7.9265,-16.13143 -7.3875,-7.2746 -7.7126,-126.75 L 1220.9478,299 h 36.5039 36.5039 l 0.2722,105.25 0.2722,105.25 2.656,7.26773 c 4.8611,13.30205 13.6307,21.88735 26.844,26.27988 5.218,1.73463 8.8668,2.16004 18.5,2.15685 21.3113,-0.007 37.3807,-6.03835 54.75,-20.54922 l 4.75,-3.96831 V 409.84346 299 h 36.5 36.5 v 134 134 h -5.3774 -5.3775 l -24.3409,-27.14787 -24.3409,-27.14788 -2.0316,2.79271 c -15.5144,21.3258 -32.4466,35.58694 -54.1665,45.62156 -9.419,4.35157 -26.412,9.09378 -38.6876,10.79647 -9.0056,1.24914 -26.4312,1.23718 -35.1776,-0.0241 z m 917.6639,0.0478 c -7.7537,-1.37606 -19.8609,-5.62695 -25.9722,-9.11898 -6.9663,-3.98057 -16.2093,-12.61364 -20.2552,-18.91857 -7.454,-11.61608 -11.1119,-29.9863 -8.9013,-44.70251 6.7984,-45.25841 51.4389,-70.55621 142.4467,-80.72481 7.16,-0.8 13.5806,-1.45888 14.2681,-1.46417 2.7981,-0.0215 0.7866,-50.65512 -2.6902,-67.716 -5.8295,-28.60603 -18.9285,-44.19299 -41.0898,-48.89412 -21.9817,-4.66301 -62.6782,6.16494 -88.7703,23.61871 -3.4652,2.31796 -6.4417,4.04961 -6.6146,3.84812 -0.5823,-0.67898 -2.5851,-4.73042 -2.5851,-5.22956 0,-1.04504 14.9804,-9.76414 24.0889,-14.02059 25.8971,-12.10174 53.4987,-17.45527 83.9111,-16.27512 56.83,2.20529 88.7704,21.07273 101.8422,60.15893 5.5025,16.45299 5.5021,16.44391 5.9041,119.25 l 0.3725,95.25 -5.8094,-4.9e-4 c -5.7728,-4.9e-4 -5.8376,-0.0336 -10.2856,-5.25 C 2356.9,554.56763 2318.7945,512 2318.4893,512 c -0.1351,0 -3.5155,4.3875 -7.5119,9.75 -18.7786,25.19728 -41.5148,41.6879 -66.6647,48.35218 -8.9606,2.37438 -32.2589,3.4142 -41.1488,1.83649 z m 67.9095,-30.40043 c 9.6897,-2.80844 19.6836,-9.16313 29.6766,-18.87017 L 2306,517.5683 V 470.28416 423 h -2.869 c -5.4894,0 -20.6776,3.11444 -29.3381,6.01599 -24.4227,8.18235 -42.4053,22.27109 -52.1481,40.85635 -5.3771,10.25707 -6.9584,17.7433 -6.3638,30.12766 0.7976,16.61547 6.0076,27.5358 16.9965,35.62536 10.5028,7.73175 24.9325,9.93098 38.7959,5.91288 z M 2497.5,571.44333 c -19.9463,-2.69392 -37.9016,-8.11406 -54.5422,-16.46458 -10.2802,-5.15878 -24.8562,-14.5702 -31.7078,-20.47307 L 2407,530.84415 V 348.42208 166 h 36 36 v 81.5 c 0,44.825 0.2386,81.5 0.5301,81.5 0.2916,0 3.5191,-2.53563 7.1723,-5.63473 13.7486,-11.66332 29.1066,-20.36506 45.6261,-25.85144 13.7316,-4.56048 24.0702,-5.90954 40.0667,-5.22823 15.7205,0.66954 25.3164,2.97445 38.379,9.21848 11.9229,5.69922 16.8698,9.15224 26.8877,18.76811 17.322,16.62674 28.3774,38.3617 34.4494,67.72781 2.1088,10.1986 2.3785,14.15937 2.3833,35 0.01,26.88683 -1.2026,35.76899 -7.4901,55.03695 -7.0844,21.70982 -16.9041,37.89607 -32.4765,53.53206 -22.7673,22.86034 -50.8647,35.82602 -87.5018,40.37814 -11.4154,1.41835 -37.2392,1.15565 -49.5262,-0.50382 z m 44.5685,-7.03968 c 23.9697,-7.04484 41.5689,-29.44071 50.3467,-64.069 4.2814,-16.89005 5.6892,-28.65814 6.261,-52.33465 1.2859,-53.25557 -8.9126,-92.31343 -29.9095,-114.54623 -12.3083,-13.03277 -25.4698,-18.84959 -42.2667,-18.68013 -14.7328,0.14865 -28.096,6.10163 -40.5356,18.05775 L 2479,339.52502 v 100.30731 100.30732 l 2.9867,4.34095 c 6.6353,9.64413 18.4475,17.43158 30.3753,20.02554 8.6726,1.88606 23.11,1.83625 29.7065,-0.10249 z M 2745,571.09217 c -19.5427,-3.15593 -33.4851,-7.15609 -48.5,-13.91502 -7.764,-3.49493 -24.5,-12.83211 -24.5,-13.66879 0,-1.21771 2.4375,-5.50836 3.1293,-5.50836 0.4446,0 3.9573,2.03707 7.8061,4.52683 22.0487,14.26322 56.9371,23.82165 86.613,23.72951 25.5497,-0.0793 41.4322,-8.32124 50.1924,-26.04643 3.7169,-7.5206 3.7592,-7.74179 3.7592,-19.65805 0,-11.51867 -0.141,-12.33982 -3.186,-18.56072 -7.7625,-15.85847 -25.5509,-29.31803 -59.314,-44.87986 -35.8408,-16.51946 -60.5795,-34.3418 -72.1531,-51.98076 -12.5832,-19.17778 -14.4171,-47.33711 -4.4074,-67.67566 6.7101,-13.63423 16.9568,-23.82897 31.4716,-31.31205 18.1514,-9.35795 34.8591,-12.98496 63.5889,-13.80426 17.3454,-0.49464 21.5928,-0.29792 32,1.48211 19.4777,3.33143 40.5162,11.07574 54.75,20.15362 4.9966,3.18664 5.5944,4.48867 3.4239,7.45694 -1.2646,1.72952 -1.5112,1.6966 -5.325,-0.71095 -24.841,-15.68147 -63.2338,-25.29105 -86.9484,-21.7629 -21.4143,3.18592 -36.327,16.89012 -39.6799,36.46442 -2.7265,15.91698 4.9595,30.1943 22.9499,42.63102 4.26,2.94495 21.0394,12.16469 37.2875,20.48831 34.0653,17.45107 41.3477,21.73572 53.042,31.20788 11.1908,9.06431 19.1559,18.70427 24.5808,29.74957 5.3126,10.81659 7.4192,20.30212 7.4192,33.40684 0,38.8202 -27.685,66.60916 -76.8843,77.17302 -14.1799,3.04465 -45.339,3.56149 -61.1157,1.01374 z M 1506,366.5 V 166 h 36.5 36.5 V 366.5 567 h -36.5 -36.5 z m 80.4948,198.48371 c -0.6306,-1.98693 8.5473,-17.33819 126.4376,-211.48371 l 29.1469,-48 -68.5396,-0.25689 L 1605,304.98622 v -2.99752 -2.99751 l 109.7363,0.25441 c 100.9987,0.23414 109.7616,0.3856 110.0537,1.90216 0.1745,0.90626 -35.0319,59.30613 -78.2364,129.77747 C 1703.3491,501.39657 1668,559.26758 1668,559.52747 1668,559.78736 1702.2,560 1744,560 h 76 v 3.5 3.5 h -116.4326 c -115.8679,0 -116.4357,-0.01 -117.0726,-2.01629 z M 1936,376 V 185 h 39 39 V 372.5 560 h 78.5 78.5 v 3.5 3.5 H 2053.5 1936 Z"
         id="path2" />
    </g>
  </g>
</svg>
