<?xml version="1.0" encoding="UTF-8" standalone="no"?>
<svg
   version="1.1"
   width="560"
   height="137"
   id="svg20"
   xmlns="http://www.w3.org/2000/svg"
   xmlns:svg="http://www.w3.org/2000/svg">
  <defs
     id="defs20" />
  <path
     d="m 469,1 c 1.85937,2.046875 1.85937,2.046875 3.75,4.75 0.63422,0.8817187 1.26844,1.7634375 1.92187,2.671875 C 476,11 476,11 475.76392,13.01709 c -1.31816,3.421558 -4.60499,4.940891 -7.57642,6.85791 -1.47084,0.979282 -2.94086,1.959809 -4.41016,2.941406 -1.17006,0.775613 -1.17006,0.775613 -2.36377,1.566895 -4.09921,2.745799 -8.1285,5.590363 -12.16357,8.429199 -1.70299,1.194203 -3.40612,2.388211 -5.10938,3.582031 -0.85013,0.596353 -1.70027,1.192705 -2.57617,1.807129 C 437.37827,41.13725 433.189,44.068436 429,47 c -1.66668,1.166645 -3.33335,2.333311 -5,3.5 -3.33333,2.333333 -6.66667,4.666667 -10,7 -0.82476,0.577339 -1.64952,1.154678 -2.49927,1.749512 -1.66908,1.168338 -3.33818,2.336632 -5.00732,3.504883 -4.13003,2.89074 -8.25955,5.782204 -12.38794,8.675292 -9.83048,6.887594 -19.67589,13.753257 -29.53174,20.604493 -8.7206,6.063826 -17.42369,12.1524 -26.12207,18.24805 -4.14952,2.90739 -8.30068,5.81245 -12.45166,8.71777 -1.66667,1.16666 -3.33334,2.33332 -5,3.5 -16.66667,11.66667 -33.33333,23.33333 -50,35 -0.82476,0.57734 -1.64952,1.15468 -2.49927,1.74951 -1.66908,1.16834 -3.33818,2.33663 -5.00732,3.50488 -4.13003,2.89074 -8.25955,5.78221 -12.38794,8.6753 -9.83048,6.88759 -19.67589,13.75325 -29.53174,20.60449 -8.7206,6.06383 -17.42369,12.1524 -26.12207,18.24805 -4.14952,2.90739 -8.30068,5.81245 -12.45166,8.71777 -1.66667,1.16666 -3.33334,2.33332 -5,3.5 -10,7 -20,14 -30,21 -0.82476,0.57734 -1.64952,1.15468 -2.49927,1.74951 -1.66908,1.16834 -3.33818,2.33663 -5.00732,3.50488 -4.13003,2.89074 -8.25955,5.78221 -12.38794,8.6753 -9.83048,6.88759 -19.67589,13.75325 -29.53174,20.60449 -8.7206,6.06383 -17.42369,12.1524 -26.12207,18.24805 C 68.30214,299.18962 64.15098,302.09468 60,305 c -1.66667,1.16666 -3.33334,2.33332 -5,3.5 -3.33333,2.33333 -6.66667,4.66667 -10,7 -1.23943,0.86794 -1.23943,0.86794 -2.50391,1.75342 -1.65278,1.1565 -3.30642,2.31179 -4.96093,3.46582 -4.38701,3.06241 -8.75376,6.14963 -13.09766,9.27295 -0.91008,0.64969 -1.82016,1.29937 -2.75781,1.96875 -1.75027,1.25019 -3.49532,2.5077 -5.23438,3.77343 -1.17949,0.83918 -1.17949,0.83918 -2.38281,1.69532 -0.68965,0.49741 -1.3793,0.99483 -2.08984,1.50732 C 10,340 10,340 6,340 4.29688,338.17187 4.29688,338.17187 2.75,335.75 2.22922,334.96109 1.70844,334.17219 1.17188,333.35937 0,331 0,331 0,327 c 1.42676,-1.42529 1.42676,-1.42529 3.45313,-2.74219 0.7545,-0.5016 1.509,-1.00321 2.28637,-1.52002 1.2427,-0.79833 1.2427,-0.79833 2.5105,-1.61279 1.74944,-1.16033 3.49812,-2.32183 5.24609,-3.48438 0.90863,-0.59876 1.81726,-1.19753 2.75342,-1.81445 C 33.50642,304.36854 49.98606,292.28677 65,278 c 0.8018,-0.73734 1.60359,-1.47469 2.42969,-2.23438 12.86049,-12.19299 23.45168,-29.06923 24.8197,-47.04206 0.0622,-3.49278 0.0364,-6.973 -0.0267,-10.46575 -0.0138,-1.965 -0.0275,-3.93001 -0.0405,-5.89502 -0.0217,-2.72737 -0.0569,-5.45448 -0.0927,-8.1817 -0.60213,-45.99516 -0.60213,-45.99516 4.09808,-67.36859 0.21358,-0.99064 0.42716,-1.98129 0.64722,-3.00195 5.49935,-24.28216 16.57446,-45.657332 32.60278,-64.62305 0.52046,-0.617622 1.04092,-1.235244 1.57715,-1.871582 1.282,-1.480179 2.6285,-2.904032 3.98535,-4.315918 0.66,0 1.32,0 2,0 0,-0.66 0,-1.32 0,-2 27.1737,-26.213303 63.4644,-36.854955 100.44531,-36.242188 28.30867,0.82995 54.95675,10.063288 80.85157,20.867188 26.50704,10.990242 46.99115,13.086114 74.14062,2.1875 C 418.2257,36.990589 442.51426,19.440463 464.28003,2.0839844 466,1 466,1 469,1 Z M 161,107 c -16.39065,20.74078 -24.85801,43.49167 -23,70 1.37252,9.61432 5.84509,18.58678 13.1875,25 5.27141,3.74856 10.54735,3.78812 16.8125,3 9.83352,-3.232 18.22817,-10.21621 26.52344,-16.22266 4.55852,-3.27149 9.17757,-6.45617 13.78906,-9.65234 9.76102,-6.78005 19.50307,-13.5867 29.23584,-20.40723 3.31515,-2.32278 6.63136,-4.64406 9.94775,-6.96508 1.6604,-1.16225 3.32056,-2.32485 4.98047,-3.4878 4.29835,-3.01096 8.60088,-6.01569 12.91016,-9.01098 1.33128,-0.92716 1.33128,-0.92716 2.68945,-1.87305 1.6783,-1.16866 3.35789,-2.33548 5.03906,-3.5 C 288.016,124.4198 288.016,124.4198 297,110 297.6737,101.64617 295.06761,95.596709 289.91406,89.046875 278.49557,76.836077 262.01218,71.58539 245.67578,70.714844 213.14082,69.716948 182.47421,82.293609 161,107 Z"
     fill="#ffffff"
     id="path1" />
  <path
     d="m 921,89 h 39 c 1.68674,1.686743 1.12222,3.772359 1.12908,6.023454 l -0.009,2.196044 0.003,2.316602 c 0.002,2.58117 -0.004,5.16228 -0.009,7.74344 -2.8e-4,1.84249 -1.2e-4,3.68498 4.4e-4,5.52747 2.9e-4,5.01838 -0.006,10.03674 -0.0126,15.05512 -0.006,5.23842 -0.007,10.47683 -0.008,15.71525 -0.003,9.92706 -0.0113,19.85412 -0.0213,29.78118 -0.0112,11.29848 -0.0167,22.59696 -0.0217,33.89544 -0.0106,23.24867 -0.0289,46.49733 -0.0504,69.746 l 74.99998,-1 -7,-8 c -4.2254,-8.99605 -4.4957,-19.25073 -1.5625,-28.75 5.2728,-12.53662 16.5751,-19.97121 28.75,-24.9375 C 1071.5323,208.81935 1088.6346,205 1105,205 c -0.1901,-4.17819 -0.4029,-8.35449 -0.6348,-12.53052 -0.076,-1.41441 -0.1454,-2.82914 -0.2089,-4.24414 C 1103.5999,175.982 1102.6101,161.78942 1093,153 c -6.8936,-4.98895 -14.8211,-4.82131 -23,-4 -10.1438,1.7266 -18.6476,5.48776 -27.6367,10.29297 -2.6305,1.33512 -4.5552,2.08994 -7.3633,2.70703 l -1,-4 c 21.382,-14.03565 45.8793,-18.27369 71.125,-13.9375 10.9956,2.64091 22.0599,7.58661 28.875,16.9375 6.9745,11.72837 9.1618,22.99578 9.1294,36.42944 v 2.74741 c 0,2.97102 10e-4,5.94198 0,8.91299 7e-4,2.07126 0,4.14251 0,6.21376 0,4.3263 -7e-4,8.65258 0,12.97887 -0.01,5.55762 0,11.11519 0,16.67281 0,4.26948 0,8.53895 -10e-5,12.80842 -7e-4,2.05063 10e-5,4.10125 0,6.15187 0,2.85361 -10e-4,5.70714 -0.01,8.56075 l 0.01,2.58623 c -0.021,5.82318 -0.021,5.82318 -1.1356,6.93745 -2.9664,0.1854 -4.3142,0.14247 -7,-1 -3.3503,-3.04364 -6.1426,-6.49804 -9,-10 -1.2236,-1.40064 -2.4523,-2.79695 -3.6875,-4.1875 -1.6949,-1.93544 -3.3685,-3.88031 -5.0078,-5.86328 L 1115.6875,259 l -1.4258,-1.75 c -1.2025,-1.4846 -1.2025,-1.4846 -3.2617,-1.25 -1.5031,1.71646 -1.5031,1.71646 -3.0625,3.9375 -9.7672,12.80192 -21.3954,21.55407 -37.375,24.75 C 1059.464,285.66105 1048.8228,284.73 1039,279 l -1,3 H 921 Z m 148.7891,135.11328 c -6.5996,6.95986 -9.2708,14.85494 -9.0391,24.39844 0.6806,6.77403 3.49,11.72828 8.25,16.48828 5.5776,4.18316 12.3407,3.82262 19,3 6.8136,-2.12335 12.8637,-6.12202 17,-12 0.9249,-3.60857 0.8216,-7.0404 0.6836,-10.74609 l -0.03,-3.06398 c -0.039,-3.21066 -0.1268,-6.41782 -0.2161,-9.62743 -0.035,-2.1842 -0.067,-4.36844 -0.096,-6.55273 C 1105.2649,220.672 1105.1479,215.33625 1105,210 c -13.3477,-0.1768 -25.434,5.13483 -35.2109,14.11328 z"
     fill="#ffffff"
     id="path2"
     style="fill:#ffffff" />
  <path
     d="m 1155,80 c 12.54,0 25.08,0 38,0 0.33,26.4 0.66,52.8 1,80 2.64,-2.31 5.28,-4.62 8,-7 2.6772,-1.58177 5.2131,-2.98708 8,-4.3125 0.66,-0.33322 1.32,-0.66645 2,-1.00977 12.1995,-5.96869 27.6143,-7.10802 40.625,-3.05273 16.6338,6.71436 26.7254,18.18151 33.6914,34.44922 7.5334,20.82107 6.5284,44.51425 -1.8633,64.88672 -8.6533,18.09751 -22.734,30.04472 -41.4619,36.75927 -7.8675,2.53986 -15.7415,3.99532 -23.9912,4.27979 -0.9797,0.0516 -1.9594,0.10312 -2.9687,0.15625 C 1193.8644,285.81467 1172.9352,278.2965 1156,264 c -1.6675,-1.6675 -1.1221,-3.69196 -1.1291,-5.91876 0,-0.70913 0.01,-1.41826 0.01,-2.14888 -8e-4,-0.74815 0,-1.49629 0,-2.26711 0,-2.52589 0,-5.05172 0.01,-7.5776 3e-4,-1.80308 10e-5,-3.60616 -5e-4,-5.40924 -3e-4,-4.91096 0.01,-9.82188 0.013,-14.73283 0.01,-5.1263 0.01,-10.25261 0.01,-15.37891 0,-9.71458 0.011,-19.42914 0.021,-29.1437 0.011,-11.05665 0.017,-22.11329 0.022,-33.16994 0.01,-22.75102 0.029,-45.50202 0.05,-68.25303 z m 39.3072,85.11876 c -2.4945,3.58987 -2.14,7.48697 -2.0836,11.72279 -0.011,0.97475 -0.021,1.94949 -0.032,2.95377 -0.026,3.21341 -0.01,6.42484 0.011,9.63827 0,2.23911 -0.01,4.47821 -0.017,6.7173 -0.01,4.68995 0,9.37921 0.032,14.06908 0.034,6.00379 0.014,12.00596 -0.021,18.00969 -0.022,4.62327 -0.015,9.24616 8e-4,13.86945 0,2.21313 -9e-4,4.42629 -0.015,6.63938 -0.015,3.09778 0.01,6.19298 0.041,9.29056 -0.012,0.90983 -0.024,1.81967 -0.037,2.75707 0.1141,5.73876 1.3061,8.74173 5.317,12.8844 5.7316,5.09302 12.7948,6.68195 20.3243,6.54042 8.3639,-0.81233 15.3966,-4.80351 20.8281,-11.14453 10.5157,-14.61995 12.9087,-32.92297 12.7188,-50.44141 0,-0.67343 -0.01,-1.34687 -0.013,-2.04071 -0.1445,-19.26011 -2.1066,-39.20614 -16.3111,-53.55304 -6.9384,-6.4494 -13.1204,-7.55863 -22.5039,-7.41016 -7.3664,0.78694 -13.0775,4.23811 -18.2397,9.49767 z"
     fill="#ffffff"
     id="path3" />
  <path
     d="m 355.10107,118.21045 c 3.14488,1.3076 4.02798,4.21069 5.33643,7.16455 0.2993,0.66121 0.5986,1.32242 0.90698,2.00366 C 374.424,157.58987 374.7659,193.36578 363,224 350.02078,256.48541 323.1004,281.99143 291.30078,296.13672 277.13538,302.1811 262.4723,306.42324 247,307 c -0.74379,0.04 -1.48758,0.0799 -2.25391,0.12109 C 213.59063,308.01728 182.52295,296.13805 159,276 c -0.65614,-0.52336 -1.31227,-1.04672 -1.98829,-1.58594 C 152.84083,271.03806 149.95738,267.48089 147,263 c 2.86888,-3.02953 5.84519,-5.42393 9.28125,-7.78516 1.00675,-0.69544 2.01351,-1.39089 3.05078,-2.10742 1.04543,-0.71607 2.09086,-1.43215 3.16797,-2.16992 2.07331,-1.4278 4.14625,-2.85617 6.21875,-4.28516 0.91716,-0.62914 1.83433,-1.25828 2.77929,-1.90649 1.59815,-1.11518 3.16882,-2.27156 4.69922,-3.47803 C 178,240 178,240 180.125,240.0625 c 2.43543,1.21772 2.70793,2.53042 3.875,4.9375 1.32859,0.67606 2.66294,1.34082 4,2 1.59548,1.21335 3.17743,2.44459 4.75,3.6875 18.26505,13.43019 40.88459,17.35727 63.07421,14.88672 C 270.12292,262.86726 283.42711,256.74904 295,248 c 0.94488,-0.71156 1.88976,-1.42312 2.86328,-2.15625 C 315.04528,232.3453 326.89136,213.87131 330,192 c 0.31261,-4.21239 0.38122,-8.40193 0.375,-12.625 -0.002,-1.71316 -0.002,-1.71316 -0.005,-3.46094 -0.18587,-12.88665 -3.05035,-24.14265 -8.37012,-35.91406 4.97781,-3.69759 9.98079,-7.35883 15,-11 0.73138,-0.53351 1.46276,-1.06702 2.21631,-1.6167 2.14727,-1.55866 4.307,-3.09824 6.47119,-4.6333 0.67031,-0.4896 1.34062,-0.9792 2.03125,-1.48364 4.73735,-3.32084 4.73735,-3.32084 7.38234,-3.05591 z"
     fill="#ffffff"
     id="path4" />
  <path
     d="m 567.51001,145.88647 c 1.56047,1.6e-4 3.12095,0.006 4.6814,0.0159 1.22975,0.002 1.22975,0.002 2.48436,0.004 2.62894,0.006 5.25781,0.0182 7.88673,0.0309 1.77799,0.005 3.55599,0.01 5.33398,0.0137 4.36788,0.0111 8.73568,0.0283 13.10352,0.0488 0.008,1.2306 0.0162,2.4612 0.0245,3.72909 0.0776,11.62273 0.16542,23.24535 0.26302,34.86793 0.0499,5.97463 0.0962,11.94925 0.13435,17.92397 0.037,5.77077 0.0834,11.54139 0.13619,17.31203 0.0185,2.19667 0.0336,4.39337 0.0453,6.59008 0.017,3.08747 0.0461,6.17461 0.0778,9.26195 0.002,0.89912 0.004,1.79825 0.007,2.72461 0.11584,8.87403 1.03024,17.25414 6.3123,24.59034 7.78086,6.03414 16.53149,6.01348 26,5 4.33997,-1.15318 8.12593,-2.7392 12,-5 0.58239,-0.28606 1.16478,-0.57212 1.76482,-0.86684 2.99018,-1.7043 4.90153,-2.98303 5.88625,-6.3775 0.25315,-2.88817 0.27995,-5.70543 0.2354,-8.60454 0.0162,-1.6397 0.0162,-1.6397 0.0326,-3.31252 0.0274,-3.60965 0.005,-7.21723 -0.0168,-10.82689 0.009,-2.50393 0.0218,-5.00786 0.0373,-7.51176 0.029,-5.91448 0.027,-11.82843 0.01,-17.7429 -0.0194,-7.39636 0.009,-14.79239 0.0368,-22.1887 0.0432,-13.18965 0.0386,-26.37865 0.0137,-39.56835 12.54,0 25.08,0 38,0 0.0225,17.58454 0.041,35.16907 0.0518,52.75363 0.005,8.16424 0.0122,16.32847 0.0236,24.4927 0.01,7.11338 0.0164,14.22675 0.0186,21.34013 0.001,3.76879 0.004,7.53757 0.0116,11.30636 0.008,4.20036 0.008,8.4007 0.008,12.60107 0.004,1.25876 0.007,2.51751 0.0109,3.81441 -0.001,1.13728 -0.003,2.27457 -0.004,3.44632 10e-4,1.49192 10e-4,1.49192 0.003,3.01398 C 692.00038,281 692.00038,281 691.00038,282 c -2.28906,0.3125 -2.28906,0.3125 -5,0 -2.21094,-1.6875 -2.21094,-1.6875 -4.375,-4 -0.77988,-0.825 -1.55977,-1.65 -2.36328,-2.5 -2.52392,-2.78983 -5.03705,-5.58348 -7.48828,-8.4375 -2.04446,-2.3777 -4.12537,-4.72081 -6.21094,-7.0625 -1.019,-1.14469 -1.019,-1.14469 -2.05859,-2.3125 -0.49629,-0.55688 -0.99258,-1.11375 -1.50391,-1.6875 -3.26845,3.13932 -3.26845,3.13932 -6.21093,6.57421 C 644.79708,276.86379 627.19582,282.71673 610,285 c -12.53601,1.08419 -24.31715,-2.08231 -34.36328,-9.82032 -9.30535,-8.65695 -12.18397,-19.19113 -12.74542,-31.5778 -0.18175,-6.83 -0.14635,-13.66076 -0.12177,-20.49251 10e-4,-2.19863 0.002,-4.39726 10e-4,-6.59589 0.002,-4.57891 0.01,-9.15774 0.0233,-13.73663 0.0171,-5.88145 0.0208,-11.76282 0.0201,-17.64429 2.7e-4,-4.52596 0.006,-9.05191 0.013,-13.57787 0.003,-2.17064 0.005,-4.34128 0.006,-6.51192 0.002,-3.01592 0.0109,-6.03175 0.0216,-9.04766 -4.6e-4,-0.9017 -9.1e-4,-1.80341 -10e-4,-2.73243 0.0378,-7.22682 0.0378,-7.22682 4.65664,-7.37621 z"
     fill="#ffffff"
     id="path5" />
  <path
     d="m 706,80 c 12.54,0 25.08,0 38,0 0.0225,26.18988 0.041,52.37974 0.0518,78.56962 0.005,12.1595 0.0122,24.31899 0.0236,36.47848 0.01,10.59406 0.0164,21.18812 0.0187,31.78219 10e-4,5.6132 0.004,11.2264 0.0116,16.8396 0.007,5.27678 0.009,10.55353 0.007,15.83031 2.8e-4,1.94271 0.002,3.88543 0.006,5.82814 0.005,2.64024 0.004,5.28042 10e-4,7.92067 0.003,0.77917 0.006,1.55833 0.009,2.36111 -0.0149,5.27576 -0.0149,5.27576 -1.12903,6.38988 -2.65456,0.10096 -5.28255,0.13971 -7.9375,0.13281 -1.19291,10e-4 -1.19291,10e-4 -2.40991,0.003 -1.68466,6.8e-4 -3.36931,-10e-4 -5.05396,-0.005 -2.58762,-0.005 -5.17507,-5e-5 -7.76269,0.006 -1.63282,-6.6e-4 -3.26563,-0.002 -4.89844,-0.004 -0.77916,0.002 -1.55832,0.004 -2.36108,0.006 -5.46147,-0.0239 -5.46147,-0.0239 -6.57642,-1.13881 -0.0978,-2.5924 -0.12995,-5.15815 -0.12025,-7.75099 -8.6e-4,-0.82165 -0.002,-1.6433 -0.003,-2.48985 -0.002,-2.77464 0.004,-5.54922 0.009,-8.32386 2.9e-4,-1.98042 1.3e-4,-3.96083 -4.4e-4,-5.94125 -2.9e-4,-5.39441 0.006,-10.78879 0.0126,-16.18319 0.006,-5.6308 0.007,-11.26159 0.008,-16.89239 0.003,-10.6708 0.0113,-21.34159 0.0214,-32.01239 0.0112,-12.14489 0.0167,-24.28979 0.0217,-36.43469 C 705.96014,129.98092 705.97849,104.99047 706,80 Z"
     fill="#ffffff"
     id="path6" />
  <path
     d="m 504,89 c 13.2,0 26.4,0 40,0 0.0905,19.46344 0.16408,38.92671 0.20725,58.39031 0.0206,9.03835 0.0486,18.07656 0.0945,27.11482 0.04,7.88258 0.0657,15.76506 0.0746,23.64774 0.005,4.16948 0.0173,8.33867 0.0466,12.50805 0.0274,3.93413 0.0355,7.86785 0.0295,11.80206 10e-4,1.43458 0.009,2.86917 0.0244,4.30366 0.16028,15.6241 -3.41647,27.36697 -13.97682,38.98336 -0.825,0.7425 -1.65,1.485 -2.5,2.25 -0.66129,0.68449 -0.66129,0.68449 -1.33594,1.38281 C 516.11149,279.61398 499.31677,284.22675 485,285 c -1.44439,0.0793 -1.44439,0.0793 -2.91797,0.16016 C 464.44088,285.65437 448.94312,280.70412 435,270 c 0.495,-1.98 0.495,-1.98 1,-4 4.0414,0.65698 7.18718,2.78903 10.625,4.875 11.91397,7.01251 26.4553,10.78761 40.22656,7.42969 5.17012,-2.10866 7.88089,-4.74411 10.58594,-9.61719 5.22245,-12.49864 6.01099,-25.53762 5.99487,-38.91602 0.009,-1.54914 0.0194,-3.09828 0.0309,-4.64741 0.0272,-4.14977 0.0368,-8.2994 0.0428,-12.44924 0.009,-4.35753 0.0357,-8.71495 0.06,-13.07241 0.0434,-8.22658 0.0721,-16.45314 0.0953,-24.67979 0.0272,-9.37631 0.0711,-18.75252 0.11629,-28.12875 C 503.87025,127.52929 503.93987,108.26471 504,89 Z"
     fill="#ffffff"
     id="path7" />
  <path
     d="m 922,90 c 12.54,0 25.08,0 38,0 0,62.04 0,124.08 0,188 25.74,0 51.48,0 78,0 0,0.66 0,1.32 0,2 -38.28,0 -76.56,0 -116,0 0,-62.7 0,-125.4 0,-190 z"
     fill="#ffffff"
     id="path8" />
  <path
     d="m 757.84096,145.87695 c 1.21538,0.001 1.21538,0.001 2.45532,0.003 0.92693,-0.001 1.85386,-0.003 2.80888,-0.004 1.53748,0.005 1.53748,0.005 3.10602,0.0109 1.07304,-1.4e-4 2.14608,-2.9e-4 3.25164,-4.4e-4 3.5658,7e-4 7.13155,0.008 10.69734,0.0163 2.46479,0.002 4.92959,0.003 7.39439,0.004 6.50199,0.004 13.00396,0.0137 19.50594,0.0247 6.62892,0.0108 13.25785,0.0148 19.88678,0.0198 13.01758,0.0107 26.03516,0.0276 39.05273,0.0488 1,3 1,3 0.21826,4.84326 -0.42523,0.68852 -0.85046,1.37704 -1.28857,2.08643 -0.4772,0.78375 -0.95439,1.5675 -1.44605,2.375 -0.79627,1.2723 -0.79627,1.2723 -1.60864,2.57031 -0.54696,0.89203 -1.09393,1.78406 -1.65747,2.70312 -1.72884,2.81383 -3.47189,5.61845 -5.21753,8.42188 -1.03308,1.66894 -2.06565,3.3382 -3.09766,5.00781 -1.56397,2.5283 -3.12932,5.05572 -4.69848,7.58081 -4.55554,7.33603 -9.0424,14.71294 -13.51636,22.09888 -5.59125,9.22943 -11.21181,18.43945 -16.875,27.625 -5.16784,8.38253 -10.31785,16.77543 -15.4375,25.1875 -0.55583,0.91306 -1.11165,1.82612 -1.68432,2.76684 C 796.10471,265.16489 792.55156,271.08073 789,277 c 24.75,0 49.5,0 75,0 -0.33,1.65 -0.66,3.3 -1,5 -38.28,0 -76.56,0 -116,0 -1.11677,-5.58385 -0.89872,-5.97598 1.98047,-10.47266 0.99471,-1.58047 0.99471,-1.58047 2.00952,-3.19287 0.73244,-1.13236 1.46495,-2.26469 2.19751,-3.39697 0.74654,-1.17815 1.4914,-2.35736 2.23462,-3.5376 1.49417,-2.37144 2.99399,-4.73916 4.4978,-7.10449 2.74467,-4.3483 5.39203,-8.74953 8.01758,-13.17041 4.71521,-7.8962 9.47406,-15.76544 14.25,-23.625 0.5376,-0.88476 0.5376,-0.88476 1.08606,-1.78739 1.46549,-2.41166 2.93114,-4.82324 4.39704,-7.23466 2.56975,-4.22735 5.13768,-8.4558 7.7044,-12.68498 0.36266,-0.59751 0.72531,-1.19503 1.09896,-1.81064 1.70498,-2.80916 3.40988,-5.61837 5.11466,-8.42765 C 808.38215,174.36352 815.19296,163.183 822,152 c -32.67,-0.495 -32.67,-0.495 -66,-1 -0.33,-1.32 -0.66,-2.64 -1,-4 1,-1 1,-1 2.84096,-1.12305 z"
     fill="#ffffff"
     id="path9" />
  <path
     d="m 1388,155 c 0.495,0.99 0.495,0.99 1,2 -0.66,0.99 -1.32,1.98 -2,3 -3.2895,-1.2603 -6.346,-2.69264 -9.4375,-4.375 -12.1426,-6.07131 -28.1124,-10.29151 -41.5664,-6.47656 -5.2518,2.24047 -8.9635,5.20593 -11.9961,10.03906 -1.4161,5.39884 -2.5088,11.52067 -0.098,16.78125 0.9613,1.39566 2.0228,2.72116 3.0977,4.03125 0,0.66 0,1.32 0,2 0.5517,0.26039 1.1034,0.52078 1.6719,0.78906 2.6439,1.37519 5.0761,2.9658 7.5781,4.58594 6.3798,4.04583 13.0903,7.31781 19.875,10.625 13.7302,6.74322 29.4536,15.19447 35.875,30 3.9825,12.81516 3.8996,22.38682 -2.332,34.27344 -6.8014,11.11784 -17.8533,16.8574 -30.1133,20.4414 -23.1731,5.53085 -47.4153,1.17547 -68.211,-9.96875 C 1289,271 1289,271 1288.1563,268.78516 1288.1047,268.19605 1288.0531,267.60695 1288,267 c 1.7686,-0.63989 1.7686,-0.63989 4,-1 1.833,0.88403 1.833,0.88403 3.7031,2.23828 4.1739,2.79255 8.2782,4.43755 13.0469,5.94922 0.7879,0.25411 1.5757,0.50821 2.3875,0.77002 13.3216,4.17791 28.65,7.02642 41.8625,1.04248 4.515,-2.69753 7.2235,-6.0446 9,-11 1.7901,-8.13154 0.681,-14.49587 -3.5625,-21.625 -7.0425,-6.86192 -15.6237,-11.17454 -24.4179,-15.37228 -34.7612,-16.65306 -34.7612,-16.65306 -42.1329,-34.73319 -2.3749,-8.75674 -2.2066,-19.89581 1.793,-28.13281 7.5289,-12.18434 18.8465,-17.78776 32.3789,-21.22266 21.468,-4.60507 43.6024,-0.66529 61.9414,11.08594 z"
     fill="#ffffff"
     id="path10" />
  <path
     d="m 1066,146 c -0.33,0.33 -0.66,0.66 -1,1 2.475,0.495 2.475,0.495 5,1 0,0.33 0,0.66 0,1 -0.8972,0.19594 -1.7944,0.39187 -2.7187,0.59375 -9.025,2.16301 -16.7384,5.33453 -24.918,9.69922 -2.6305,1.33512 -4.5552,2.08994 -7.3633,2.70703 -0.33,-1.32 -0.66,-2.64 -1,-4 22.9012,-15.03293 22.9012,-15.03293 32,-12 z"
     fill="ffffff"
     id="path11"
     style="fill:#ffffff" />
  <path
     d="m 1049,152 c -0.1641,1.79297 -0.1641,1.79297 -1,4 -2.3984,1.73828 -2.3984,1.73828 -5.375,3.3125 -1.4657,0.79857 -1.4657,0.79857 -2.9609,1.61328 C 1037,162 1037,162 1034,161 c 0.062,-1.75 0.062,-1.75 1,-4 4.6704,-3.08424 8.349,-5 14,-5 z"
     fill="#4E4E4E"
     id="path12"
     style="fill:#ffffff" />
  <path
     d="m 144,55 c 0.66,0.33 1.32,0.66 2,1 -4.05878,4.834521 -8.31762,9.44623 -12.75,13.9375 -1.38445,1.405723 -1.38445,1.405723 -2.79688,2.839844 C 128,75 128,75 125,76 c 1.50983,-3.428566 3.51714,-5.956782 6,-8.75 0.70125,-0.799219 1.4025,-1.598437 2.125,-2.421875 C 135,63 135,63 137,63 c 0,-0.66 0,-1.32 0,-2 1.53125,-1.507813 1.53125,-1.507813 3.5,-3.125 0.64969,-0.538828 1.29937,-1.077656 1.96875,-1.632813 C 142.97406,55.832266 143.47937,55.422344 144,55 Z"
     fill="#525252"
     id="path13"
     style="fill:#ffffff" />
  <path
     d="m 1062,145 c 1.32,0.33 2.64,0.66 4,1 -0.33,0.33 -0.66,0.66 -1,1 1.65,0.33 3.3,0.66 5,1 0,0.33 0,0.66 0,1 -4.4091,1.10229 -8.4838,1.07655 -13,1 0.66,-0.99 1.32,-1.98 2,-3 0.99,0 1.98,0 3,0 0,-0.66 0,-1.32 0,-2 z"
     fill="#ffffff"
     id="path14"
     style="fill:#ffffff" />
  <path
     d="m 1042,223 c -1.5909,4.13639 -4.6047,7.23213 -8,10 -0.66,0 -1.32,0 -2,0 1.4999,-3.89984 5.4612,-10 10,-10 z"
     fill="#ffffff"
     id="path15"
     style="fill:#ffffff" />
  <path
     d="m 1306,153 c -1.5909,4.13639 -4.6047,7.23213 -8,10 -0.66,0 -1.32,0 -2,0 1.4999,-3.89984 5.4612,-10 10,-10 z"
     fill="#ffffff"
     id="path16"
     style="fill:#ffffff" />
  <path
     d="m 1049,152 c -0.33,1.32 -0.66,2.64 -1,4 -2.31,0.33 -4.62,0.66 -7,1 0.33,-1.32 0.66,-2.64 1,-4 2.4906,-0.68708 4.3789,-1 7,-1 z"
     fill="#ffffff"
     id="path17"
     style="fill:#ffffff" />
  <path
     d="m 1062,147 c -1.98,0.99 -1.98,0.99 -4,2 0.99,0.66 1.98,1.32 3,2 -1.98,0.33 -3.96,0.66 -6,1 0.33,-0.99 0.66,-1.98 1,-3 -1.32,-0.33 -2.64,-0.66 -4,-1 6.2857,-2.42857 6.2857,-2.42857 10,-1 z"
     fill="#ffffff"
     id="path18"
     style="fill:#ffffff" />
  <path
     d="m 436,266 c 1.9375,0.375 1.9375,0.375 4,1 0.33,0.66 0.66,1.32 1,2 -1.32,-0.33 -2.64,-0.66 -4,-1 0.66,1.32 1.32,2.64 2,4 -1.32,-0.66 -2.64,-1.32 -4,-2 0.33,-1.32 0.66,-2.64 1,-4 z"
     fill="#ffffff"
     id="path19"
     style="fill:#ffffff" />
  <path
     d="m 151,259 c 0.66,0.33 1.32,0.66 2,1 -0.99,1.98 -1.98,3.96 -3,6 -0.99,-0.99 -1.98,-1.98 -3,-3 1.32,-1.32 2.64,-2.64 4,-4 z"
     fill="#ffffff"
     id="path20"
     style="fill:#ffffff" />
</svg>
